<?xml version="1.0" encoding="utf-8"?>
<!-- Generator: Adobe Illustrator 22.0.1, SVG Export Plug-In . SVG Version: 6.00 Build 0)  -->
<svg version="1.1" id="圖層_1" xmlns="http://www.w3.org/2000/svg" xmlns:xlink="http://www.w3.org/1999/xlink" x="0px" y="0px"
	 viewBox="0 0 24 24" style="enable-background:new 0 0 24 24;" xml:space="preserve">
<style type="text/css">
	.st0{fill:#16E9D8;}
	.st1{fill:#3E3A39;}
</style>
<title>index</title>
<g>
	<circle class="st0" cx="12" cy="12" r="11.7"/>
	<path class="st0" d="M12,0.7c6.3,0,11.3,5.1,11.3,11.3S18.3,23.3,12,23.3S0.7,18.3,0.7,12C0.7,5.7,5.7,0.7,12,0.7 M12,0
		C5.4,0,0,5.4,0,12s5.4,12,12,12s12-5.4,12-12S18.6,0,12,0z"/>
	<path class="st1" d="M12.2,8.9c-1.8,0-3.2,1.4-3.2,3.1s1.4,3.2,3.1,3.2c1.8,0,3.2-1.4,3.2-3.1c0,0,0,0,0,0C15.4,10.4,14,9,12.2,8.9
		C12.2,8.9,12.2,8.9,12.2,8.9z M12.2,13.7c-0.9,0-1.6-0.7-1.6-1.6c0,0,0,0,0,0c0-0.9,0.7-1.6,1.6-1.6c0.9,0,1.6,0.7,1.6,1.6
		C13.8,13,13.1,13.7,12.2,13.7C12.2,13.7,12.2,13.7,12.2,13.7L12.2,13.7z"/>
	<path class="st1" d="M12.1,5.9H6.4c-0.3,0-0.5,0.2-0.5,0.5v5.7c0,3.5,2.8,6.3,6.3,6.3s6.3-2.8,6.3-6.3S15.6,5.9,12.1,5.9L12.1,5.9z
		 M7.9,12.1c0-2.4,2-4.3,4.4-4.3s4.3,2,4.3,4.4s-2,4.3-4.4,4.3c0,0,0,0,0,0C9.8,16.4,7.8,14.5,7.9,12.1z"/>
</g>
</svg>
