<?xml version="1.0" encoding="utf-8"?>
<!-- Generator: Adobe Illustrator 22.0.1, SVG Export Plug-In . SVG Version: 6.00 Build 0)  -->
<svg version="1.1" id="圖層_1" xmlns="http://www.w3.org/2000/svg" xmlns:xlink="http://www.w3.org/1999/xlink" x="0px" y="0px"
	 viewBox="0 0 20 20" style="enable-background:new 0 0 20 20;" xml:space="preserve">
<style type="text/css">
	.st0{fill:#CCCCCC;}
	.st1{fill:#3E3A39;}
</style>
<title>index</title>
<g>
	<circle class="st0" cx="10" cy="10" r="9.7"/>
	<path class="st0" d="M10,0.7c5.2,0,9.3,4.2,9.3,9.3s-4.2,9.3-9.3,9.3S0.7,15.2,0.7,10S4.8,0.7,10,0.7 M10,0C4.5,0,0,4.5,0,10
		s4.5,10,10,10s10-4.5,10-10S15.5,0,10,0z"/>
	<path class="st1" d="M12.1,5.3H7.9C6.5,5.4,5.4,6.5,5.3,7.9v4.2c0.1,1.4,1.2,2.5,2.6,2.6h4.2c1.4-0.1,2.5-1.2,2.6-2.6V7.9
		C14.6,6.5,13.5,5.4,12.1,5.3z M13.9,12.1c0,1-0.8,1.8-1.8,1.8H7.9c-1,0-1.8-0.8-1.8-1.8V7.9c0-1,0.8-1.8,1.8-1.8l0,0h4.2
		c1,0,1.8,0.8,1.8,1.8V12.1z"/>
	<path class="st1" d="M10,7.6c-1.3,0-2.4,1.1-2.4,2.4s1.1,2.4,2.4,2.4s2.4-1.1,2.4-2.4l0,0C12.4,8.7,11.3,7.6,10,7.6z M10,11.6
		c-0.9,0-1.6-0.7-1.6-1.6c0-0.9,0.7-1.6,1.6-1.6s1.6,0.7,1.6,1.6c0,0,0,0,0,0C11.6,10.9,10.9,11.6,10,11.6L10,11.6z"/>
	<path class="st1" d="M12.5,6.9c-0.3,0-0.6,0.2-0.6,0.6c0,0,0,0,0,0.1c0,0.2,0.1,0.3,0.2,0.4c0.1,0.1,0.3,0.2,0.4,0.2
		c0.3,0,0.6-0.3,0.6-0.6c0-0.2-0.1-0.3-0.2-0.4C12.8,6.9,12.7,6.9,12.5,6.9z"/>
</g>
</svg>
