<svg id="圖層_1" data-name="圖層 1" xmlns="http://www.w3.org/2000/svg" viewBox="0 0 38.03 65.66"><defs><style>.cls-1{fill:#dbdcdc;}</style></defs><title>index</title><path class="cls-1" d="M4.2,1,35.71,32.51a2.6,2.6,0,0,1,.26.32l.57.56a1.67,1.67,0,0,1,0,2.36L8.64,63.65a3.45,3.45,0,0,1-4.88,0L1.83,61.71,29,34.54,1.83,7.38a2.83,2.83,0,0,1,0-4L4.2,1m0-1a1.05,1.05,0,0,0-.71.29L1.12,2.66a3.85,3.85,0,0,0,0,5.43L27.58,34.54,1.12,61a1,1,0,0,0,0,1.41l1.94,1.94a4.45,4.45,0,0,0,6.29,0l27.89-27.9a2.64,2.64,0,0,0,0-3.77l-.51-.52a4.68,4.68,0,0,0-.31-.37L4.91.29A1,1,0,0,0,4.2,0Z"/></svg>