<svg id="圖層_1" data-name="圖層 1" xmlns="http://www.w3.org/2000/svg" viewBox="0 0 136 458.16"><defs><style>.cls-1{fill:none;stroke:#fff;stroke-linecap:round;stroke-linejoin:round;}</style></defs><title>index</title><line class="cls-1" x2="133.08"/><line class="cls-1" y1="19.82" x2="133.08" y2="19.82"/><line class="cls-1" y1="39.63" x2="133.08" y2="39.63"/><line class="cls-1" y1="59.45" x2="133.08" y2="59.45"/><line class="cls-1" y1="79.27" x2="133.08" y2="79.27"/><line class="cls-1" y1="99.09" x2="133.08" y2="99.09"/><line class="cls-1" y1="118.9" x2="133.08" y2="118.9"/><line class="cls-1" y1="138.72" x2="133.08" y2="138.72"/><line class="cls-1" y1="158.54" x2="133.08" y2="158.54"/><line class="cls-1" y1="178.36" x2="133.08" y2="178.36"/><line class="cls-1" y1="198.17" x2="133.08" y2="198.17"/><line class="cls-1" y1="217.99" x2="133.08" y2="217.99"/><line class="cls-1" y1="237.81" x2="133.08" y2="237.81"/><line class="cls-1" x1="0.27" y1="257.84" x2="133.34" y2="257.84"/><line class="cls-1" x1="0.53" y1="277.87" x2="133.61" y2="277.87"/><line class="cls-1" x1="0.8" y1="297.91" x2="133.88" y2="297.91"/><line class="cls-1" x1="1.06" y1="317.94" x2="134.14" y2="317.94"/><line class="cls-1" x1="1.33" y1="337.97" x2="134.41" y2="337.97"/><line class="cls-1" x1="1.59" y1="358" x2="134.67" y2="358"/><line class="cls-1" x1="1.86" y1="378.03" x2="134.94" y2="378.03"/><line class="cls-1" x1="2.12" y1="398.07" x2="135.2" y2="398.07"/><line class="cls-1" x1="2.39" y1="418.1" x2="135.47" y2="418.1"/><line class="cls-1" x1="2.66" y1="438.13" x2="135.73" y2="438.13"/><line class="cls-1" x1="2.92" y1="458.16" x2="136" y2="458.16"/></svg>