<svg id="圖層_1" data-name="圖層 1" xmlns="http://www.w3.org/2000/svg" viewBox="0 0 198 110"><defs><style>.cls-1{fill:#dcdcdc;}</style></defs><title>index-cover</title><path class="cls-1" d="M97.69,60.62a1.47,1.47,0,0,0,1.46,1.47h2.71a1.47,1.47,0,0,0,1.47-1.47V55.54H97.69Z"/><path class="cls-1" d="M90.9,31.77v3c0,.62.38.73.89.73h16.94V31H91.79C91.28,31,90.9,31.15,90.9,31.77Z"/><path class="cls-1" d="M102.7,84a1.39,1.39,0,0,0-1.53-1.43h-2v2.84h2A1.38,1.38,0,0,0,102.7,84Z"/><path class="cls-1" d="M92.14,82.54a1.86,1.86,0,0,0-1.33.55c-.43.47-.52,1-.52,2.7s.09,2.22.52,2.69a1.88,1.88,0,0,0,2.66,0c.43-.47.53-1,.53-2.69s-.1-2.23-.53-2.7A1.86,1.86,0,0,0,92.14,82.54Z"/><path class="cls-1" d="M193,0H5A5,5,0,0,0,0,5V105a5,5,0,0,0,5,5H193a5,5,0,0,0,5-5V5A5,5,0,0,0,193,0ZM98,20.48a.81.81,0,0,1,.74-.48h7.5l-.56,1.24a.81.81,0,0,1-.74.48h-7.5ZM79.09,62.94c3.49,0,4.91-1.11,4.91-12.24V30.8a6.66,6.66,0,0,1,6.66-6.66H116.4c-.48,1.05-.59,1.72-1.74,1.72h-24a4.94,4.94,0,0,0-4.94,4.94V50.7c0,8.35-.66,12.33-3.9,13.54a2.66,2.66,0,0,1-3.51-1.3Zm30.32.32a.87.87,0,0,1-.8.55l-.16,0a.86.86,0,0,1-.7-.84V46.62h.91a.81.81,0,0,1,.81.81V58.37l4.36-11.19a.85.85,0,0,1,1.18-.46.89.89,0,0,1,.48.8V63.8h-.91a.81.81,0,0,1-.81-.81V52.07Zm-6.08-9.44V47.43a.81.81,0,0,1,.81-.81h.91v14a3.19,3.19,0,0,1-3.19,3.19H99.15A3.19,3.19,0,0,1,96,60.62v-14h.91a.81.81,0,0,1,.81.81v6.39ZM89.19,42.36v-.91a.81.81,0,0,1,.81-.81h25.46v.91a.82.82,0,0,1-.82.81Zm3.47,19.73V63a.82.82,0,0,1-.81.82H89V62.9a.81.81,0,0,1,.81-.81H90V48.34H89v-.9a.81.81,0,0,1,.81-.81h2.86v.9a.81.81,0,0,1-.81.81h-.16V62.09Zm22.59-32.77v.91a.81.81,0,0,1-.81.81h-4v4.44h4a.81.81,0,0,1,.81.81v.91H91.58a2.23,2.23,0,0,1-2.4-2.45v-3a2.23,2.23,0,0,1,2.4-2.45h17.15V27.7h.91a.81.81,0,0,1,.81.81v.81ZM80.07,89.93a.63.63,0,0,1-.61-.48l-2-7.8h.65a.65.65,0,0,1,.63.48L80.12,88l1.65-5.86a.64.64,0,0,1,.62-.47H83l-2.35,7.82A.65.65,0,0,1,80.07,89.93Zm5.16-.48a.63.63,0,0,1-.61.48h0a.65.65,0,0,1-.62-.46l-1.21-4.16.52-1.83L84.57,88,86,82.13a.63.63,0,0,1,.62-.48h.65Zm9.86-3.53c0,1.56,0,2.42-.78,3.2h0a3.1,3.1,0,0,1-4.33,0c-.79-.79-.79-1.67-.79-3.26v-.14c0-1.6,0-2.48.79-3.27a3.1,3.1,0,0,1,4.33,0c.78.78.78,1.64.78,3.21Zm8,4a.65.65,0,0,1-.57-.35L101,86.41l0,0H99.17v3.57H98.08V81.65h3.19A2.33,2.33,0,0,1,103.8,84a2.12,2.12,0,0,1-1.62,2.15l-.11,0L104,89.93Zm4.74-3.85v3.85h-1.09V81.65h1.09Zm4.33,3.85a.62.62,0,0,1-.55-.32l-2.17-3.81-.07-.12-1,1.19V85.4l2.87-3.52a.62.62,0,0,1,.49-.23h1l-2.62,3.16,0,0,3,5.07Zm-3.5-17.58a23.93,23.93,0,0,1-8.51-1.79,24.06,24.06,0,0,0-7.93-1.68A10.06,10.06,0,0,0,84.87,72h0V71.3a3,3,0,0,1,1.47-2.6h0a11.7,11.7,0,0,1,5.89-1.53,25.8,25.8,0,0,1,8.52,1.78,22.38,22.38,0,0,0,7.92,1.69,10.13,10.13,0,0,0,7.48-3.21v.73a3.06,3.06,0,0,1-1.51,2.63A11.7,11.7,0,0,1,108.68,72.35ZM117.63,90a3.79,3.79,0,0,1-2.86-1s.67-.75,1.21-.48a2.8,2.8,0,0,0,1.68.53c1.15,0,1.84-.52,1.84-1.39a1.27,1.27,0,0,0-.36-1,1.66,1.66,0,0,0-1-.38l-1-.14a2.87,2.87,0,0,1-1.56-.65A2,2,0,0,1,115,84c0-1.46,1.08-2.4,2.74-2.4a3.44,3.44,0,0,1,2.49.88s-.56.6-1,.41a3,3,0,0,0-1.5-.36,1.45,1.45,0,0,0-1.65,1.42,1.1,1.1,0,0,0,.36.86,2,2,0,0,0,1,.41l1,.14a2.78,2.78,0,0,1,1.54.61,2.13,2.13,0,0,1,.65,1.67C120.58,89.06,119.42,90,117.63,90Z"/></svg>