<svg id="圖層_1" data-name="圖層 1" xmlns="http://www.w3.org/2000/svg" viewBox="0 0 137 480.11"><defs><style>.cls-1{fill:none;stroke:#fff;stroke-linecap:round;stroke-linejoin:round;}</style></defs><title>index</title><path class="cls-1" d="M136.5.5c0,21.66-16.9,36.68-36.57,36.68-14.28,0-23.48-9.28-31.06-18.31C62.69,11.5,53.08.55,37.13.55,19.73.55.5,14.53.5,37.18"/><path class="cls-1" d="M136.5,20.74c0,21.66-16.9,36.69-36.57,36.69-14.28,0-23.48-9.28-31.06-18.32-6.18-7.37-15.79-18.32-31.74-18.32C19.73,20.79.5,34.78.5,57.43"/><path class="cls-1" d="M136.5,41c0,21.66-16.9,36.69-36.57,36.69-14.28,0-23.48-9.28-31.06-18.32C62.69,52,53.08,41,37.13,41,19.73,41,.5,55,.5,77.67"/><path class="cls-1" d="M136.5,61.23c0,21.65-16.9,36.68-36.57,36.68-14.28,0-23.48-9.28-31.06-18.32-6.18-7.36-15.79-18.31-31.74-18.31C19.73,61.28.5,75.26.5,97.91"/><path class="cls-1" d="M136.5,81.47c0,21.66-16.9,36.68-36.57,36.68-14.28,0-23.48-9.28-31.06-18.31-6.18-7.37-15.79-18.32-31.74-18.32C19.73,81.52.5,95.5.5,118.15"/><path class="cls-1" d="M136.5,101.71c0,21.66-16.9,36.69-36.57,36.69-14.28,0-23.48-9.28-31.06-18.32-6.18-7.37-15.79-18.32-31.74-18.32-17.4,0-36.63,14-36.63,36.64"/><path class="cls-1" d="M136.5,122c0,21.66-16.9,36.69-36.57,36.69-14.28,0-23.48-9.28-31.06-18.32C62.69,133,53.08,122,37.13,122,19.73,122,.5,136,.5,158.64"/><path class="cls-1" d="M136.5,142.2c0,21.65-16.9,36.68-36.57,36.68-14.28,0-23.48-9.28-31.06-18.32-6.18-7.36-15.79-18.31-31.74-18.31-17.4,0-36.63,14-36.63,36.63"/><path class="cls-1" d="M136.5,162.44c0,21.65-16.9,36.68-36.57,36.68-14.28,0-23.48-9.28-31.06-18.31-6.18-7.37-15.79-18.32-31.74-18.32-17.4,0-36.63,14-36.63,36.63"/><path class="cls-1" d="M136.5,182.68c0,21.66-16.9,36.68-36.57,36.68-14.28,0-23.48-9.28-31.06-18.31-6.18-7.37-15.79-18.32-31.74-18.32-17.4,0-36.63,14-36.63,36.63"/><path class="cls-1" d="M136.5,202.92c0,21.66-16.9,36.69-36.57,36.69-14.28,0-23.48-9.28-31.06-18.32C62.69,213.92,53.08,203,37.13,203,19.73,203,.5,217,.5,239.61"/><path class="cls-1" d="M136.5,222.92c0,21.66-16.9,36.69-36.57,36.69-14.28,0-23.48-9.28-31.06-18.32C62.69,233.92,53.08,223,37.13,223,19.73,223,.5,237,.5,259.61"/><path class="cls-1" d="M136.5,242.92c0,21.66-16.9,36.69-36.57,36.69-14.28,0-23.48-9.28-31.06-18.32C62.69,253.92,53.08,243,37.13,243,19.73,243,.5,257,.5,279.61"/><path class="cls-1" d="M136.5,262.92c0,21.66-16.9,36.69-36.57,36.69-14.28,0-23.48-9.28-31.06-18.32C62.69,273.92,53.08,263,37.13,263,19.73,263,.5,277,.5,299.61"/><path class="cls-1" d="M136.5,282.92c0,21.66-16.9,36.69-36.57,36.69-14.28,0-23.48-9.28-31.06-18.32C62.69,293.92,53.08,283,37.13,283,19.73,283,.5,297,.5,319.61"/><path class="cls-1" d="M136.5,302.92c0,21.66-16.9,36.69-36.57,36.69-14.28,0-23.48-9.28-31.06-18.32C62.69,313.92,53.08,303,37.13,303,19.73,303,.5,317,.5,339.61"/><path class="cls-1" d="M136.5,322.92c0,21.66-16.9,36.69-36.57,36.69-14.28,0-23.48-9.28-31.06-18.32C62.69,333.92,53.08,323,37.13,323,19.73,323,.5,337,.5,359.61"/><path class="cls-1" d="M136.5,342.92c0,21.66-16.9,36.69-36.57,36.69-14.28,0-23.48-9.28-31.06-18.32C62.69,353.92,53.08,343,37.13,343,19.73,343,.5,357,.5,379.61"/><path class="cls-1" d="M136.5,362.92c0,21.66-16.9,36.69-36.57,36.69-14.28,0-23.48-9.28-31.06-18.32C62.69,373.92,53.08,363,37.13,363,19.73,363,.5,377,.5,399.61"/><path class="cls-1" d="M136.5,382.92c0,21.66-16.9,36.69-36.57,36.69-14.28,0-23.48-9.28-31.06-18.32C62.69,393.92,53.08,383,37.13,383,19.73,383,.5,397,.5,419.61"/><path class="cls-1" d="M136.5,402.92c0,21.66-16.9,36.69-36.57,36.69-14.28,0-23.48-9.28-31.06-18.32C62.69,413.92,53.08,403,37.13,403,19.73,403,.5,417,.5,439.61"/><path class="cls-1" d="M136.5,422.92c0,21.66-16.9,36.69-36.57,36.69-14.28,0-23.48-9.28-31.06-18.32C62.69,433.92,53.08,423,37.13,423,19.73,423,.5,437,.5,459.61"/><path class="cls-1" d="M136.5,442.92c0,21.66-16.9,36.69-36.57,36.69-14.28,0-23.48-9.28-31.06-18.32C62.69,453.92,53.08,443,37.13,443,19.73,443,.5,457,.5,479.61"/></svg>