<?xml version="1.0" encoding="utf-8"?>
<!-- Generator: Adobe Illustrator 22.0.1, SVG Export Plug-In . SVG Version: 6.00 Build 0)  -->
<svg version="1.1" id="圖層_1" xmlns="http://www.w3.org/2000/svg" xmlns:xlink="http://www.w3.org/1999/xlink" x="0px" y="0px"
	 viewBox="0 0 24 24" style="enable-background:new 0 0 24 24;" xml:space="preserve">
<style type="text/css">
	.st0{fill:#16E9D8;}
	.st1{fill:#3E3A39;stroke:#3E3A39;stroke-width:0.25;stroke-miterlimit:10;}
</style>
<title>index</title>
<g>
	<circle class="st0" cx="12" cy="12" r="11.7"/>
	<path class="st0" d="M12,0.7c6.3,0,11.3,5.1,11.3,11.3S18.3,23.3,12,23.3S0.7,18.3,0.7,12C0.7,5.7,5.7,0.7,12,0.7 M12,0
		C5.4,0,0,5.4,0,12s5.4,12,12,12s12-5.4,12-12S18.6,0,12,0z"/>
	<path class="st1" d="M14.5,6.3H9.5c-1.7,0-3.1,1.4-3.1,3.1v5.1c0,1.7,1.4,3.1,3.1,3.1h5.1c1.7,0,3.1-1.4,3.1-3.1l0,0V9.5
		C17.7,7.7,16.3,6.3,14.5,6.3z M16.7,14.5c0,1.2-1,2.1-2.1,2.1H9.5c-1.2,0-2.1-1-2.1-2.1V9.5c0-1.2,1-2.1,2.1-2.1h5.1
		c1.2,0,2.1,1,2.1,2.1V14.5z"/>
	<path class="st1" d="M12,9.1c-1.6,0-2.9,1.3-2.9,2.9s1.3,2.9,2.9,2.9s2.9-1.3,2.9-2.9l0,0C14.9,10.4,13.6,9.1,12,9.1z M12,13.9
		c-1.1,0-1.9-0.9-1.9-1.9c0-1.1,0.9-1.9,1.9-1.9c1.1,0,1.9,0.9,1.9,1.9S13.1,13.9,12,13.9C12,13.9,12,13.9,12,13.9z"/>
	<path class="st1" d="M15,8.2c-0.2,0-0.4,0.1-0.5,0.2c-0.3,0.3-0.3,0.7,0,1c0,0,0,0,0,0c0.1,0.1,0.3,0.2,0.5,0.2
		c0.2,0,0.4-0.1,0.5-0.2c0.3-0.3,0.3-0.8,0-1C15.4,8.3,15.2,8.2,15,8.2z"/>
</g>
</svg>
