<?xml version="1.0" encoding="utf-8"?>
<!-- Generator: Adobe Illustrator 22.0.1, SVG Export Plug-In . SVG Version: 6.00 Build 0)  -->
<svg version="1.1" id="圖層_1" xmlns="http://www.w3.org/2000/svg" xmlns:xlink="http://www.w3.org/1999/xlink" x="0px" y="0px"
	 viewBox="0 0 20 20" style="enable-background:new 0 0 20 20;" xml:space="preserve">
<style type="text/css">
	.st0{fill:#CCCCCC;}
	.st1{fill:#3E3A39;}
</style>
<title>index</title>
<g>
	<circle class="st0" cx="10" cy="10" r="9.7"/>
	<path class="st0" d="M10,0.7c5.2,0,9.3,4.2,9.3,9.3s-4.2,9.3-9.3,9.3S0.7,15.2,0.7,10S4.8,0.7,10,0.7 M10,0C4.5,0,0,4.5,0,10
		s4.5,10,10,10s10-4.5,10-10S15.5,0,10,0z"/>
	<path class="st1" d="M10.2,7.5c-1.5,0-2.7,1.2-2.7,2.7s1.2,2.7,2.7,2.7s2.7-1.2,2.7-2.7l0,0C12.9,8.6,11.7,7.5,10.2,7.5z
		 M10.2,11.5c-0.7,0-1.3-0.6-1.3-1.3s0.6-1.3,1.3-1.3s1.3,0.6,1.3,1.3l0,0C11.5,10.9,10.9,11.4,10.2,11.5
		C10.2,11.4,10.2,11.4,10.2,11.5L10.2,11.5z"/>
	<path class="st1" d="M10.1,4.9H5.3c-0.2,0-0.4,0.2-0.4,0.4v4.8c0,2.9,2.3,5.2,5.2,5.2s5.2-2.3,5.2-5.2S13,4.9,10.1,4.9z M6.5,10.1
		c0-2,1.7-3.6,3.7-3.6c2,0,3.6,1.7,3.6,3.7c0,2-1.7,3.6-3.7,3.6C8.1,13.7,6.5,12,6.5,10.1C6.5,10.1,6.5,10.1,6.5,10.1z"/>
</g>
</svg>
