<?xml version="1.0" encoding="utf-8"?>
<!-- Generator: Adobe Illustrator 22.0.1, SVG Export Plug-In . SVG Version: 6.00 Build 0)  -->
<svg version="1.1" id="圖層_1" xmlns="http://www.w3.org/2000/svg" xmlns:xlink="http://www.w3.org/1999/xlink" x="0px" y="0px"
	 viewBox="0 0 20 20" style="enable-background:new 0 0 20 20;" xml:space="preserve">
<style type="text/css">
	.st0{fill:#CCCCCC;}
	.st1{fill:#3E3A39;}
</style>
<title>index</title>
<g>
	<circle class="st0" cx="10" cy="10" r="9.7"/>
	<path class="st0" d="M10,0.7c5.2,0,9.3,4.2,9.3,9.3s-4.2,9.3-9.3,9.3S0.7,15.2,0.7,10S4.8,0.7,10,0.7 M10,0C4.5,0,0,4.5,0,10
		s4.5,10,10,10s10-4.5,10-10S15.5,0,10,0z"/>
	<path class="st1" d="M10.9,14.7v-4.1h0.8c0.5,0,1-0.4,1.1-0.9l0.1-1.1h-2.1V7.1c0-0.6,0.2-1,1-1l0,0C12.5,6.1,13,5.6,13,5
		c0,0,0,0,0,0V4.3c-0.5-0.1-1.1-0.1-1.6-0.1C10,4.1,8.9,5.1,8.7,6.5c0,0.1,0,0.3,0,0.4v1.6H8.1C7.5,8.5,7,8.9,7,9.5v1h1.8v5.3h1
		c0.6,0,1.1-0.5,1.1-1.1C10.9,14.7,10.9,14.7,10.9,14.7z"/>
</g>
</svg>
