<svg id="圖層_1" data-name="圖層 1" xmlns="http://www.w3.org/2000/svg" viewBox="0 0 38.03 65.66"><defs><style>.cls-1{fill:#dbdcdc;}</style></defs><title>index</title><path class="cls-1" d="M33.82,1,36.2,3.37a2.85,2.85,0,0,1,0,4L9,34.54,36.2,61.71l-1.94,1.94a3.44,3.44,0,0,1-4.87,0L1.49,35.75a1.67,1.67,0,0,1,0-2.36l.56-.56a2.6,2.6,0,0,1,.26-.32L33.82,1m0-1a1,1,0,0,0-.7.29L1.61,31.8a4.63,4.63,0,0,0-.32.38l-.51.51a2.67,2.67,0,0,0,0,3.77l27.9,27.9a4.45,4.45,0,0,0,6.29,0l1.94-1.94a1,1,0,0,0,0-1.41L10.45,34.54,36.9,8.09a3.83,3.83,0,0,0,0-5.43L34.53.29A1,1,0,0,0,33.82,0Z"/></svg>