<svg id="圖層_1" data-name="圖層 1" xmlns="http://www.w3.org/2000/svg" viewBox="0 0 375.66 89.57"><defs><style>.cls-1{fill:none;stroke:#dbdcdc;stroke-linecap:round;stroke-linejoin:round;}</style></defs><title>index-cover</title><polygon class="cls-1" points="18.29 0.5 0.5 89.06 16.92 89.06 34.71 0.5 18.29 0.5"/><polygon class="cls-1" points="75.63 0.5 27.37 89.06 44.91 89.06 77.75 25.38 81.97 59.46 69.8 59.46 63.08 72.89 83.22 72.89 85.08 89.06 101.75 89.06 88.69 0.5 75.63 0.5"/><polygon class="cls-1" points="304.5 0.5 256.24 89.06 273.78 89.06 306.62 25.38 310.85 59.46 298.67 59.46 291.96 72.89 312.09 72.89 313.96 89.06 330.63 89.06 317.56 0.5 304.5 0.5"/><polygon class="cls-1" points="166.93 55.98 143.8 0.5 129.86 0.5 112.08 89.06 128.5 89.06 139.69 33.71 162.7 89.06 176.63 89.06 194.42 0.5 178 0.5 166.93 55.98"/><polygon class="cls-1" points="230.49 0.5 214.07 0.5 196.29 89.06 251.39 89.06 254.25 74.64 215.69 74.64 230.49 0.5"/><polygon class="cls-1" points="358.74 0.5 340.95 89.06 357.37 89.06 375.16 0.5 358.74 0.5"/></svg>