<?xml version="1.0" encoding="utf-8"?>
<!-- Generator: Adobe Illustrator 22.0.1, SVG Export Plug-In . SVG Version: 6.00 Build 0)  -->
<svg version="1.1" id="圖層_1" xmlns="http://www.w3.org/2000/svg" xmlns:xlink="http://www.w3.org/1999/xlink" x="0px" y="0px"
	 viewBox="0 0 18 18" style="enable-background:new 0 0 18 18;" xml:space="preserve">
<style type="text/css">
	.st0{fill:#16E9D8;}
	.st1{fill:#3E3A39;stroke:#3E3A39;stroke-width:0.25;stroke-miterlimit:10;}
</style>
<title>工作區域 18</title>
<circle class="st0" cx="9" cy="9" r="8.8"/>
<path class="st0" d="M9,0.5c4.7,0,8.5,3.8,8.5,8.5s-3.8,8.5-8.5,8.5S0.5,13.7,0.5,9C0.5,4.3,4.3,0.5,9,0.5 M9,0C4,0,0,4,0,9s4,9,9,9
	s9-4,9-9S14,0,9,0z"/>
<path class="st1" d="M12.9,5.2H5.1c-0.5,0-0.9,0.3-1,0.8v5.9V12v0.1c0.1,0.4,0.5,0.7,0.9,0.7h7.9c0.5,0,0.9-0.3,1-0.7
	c0-0.1,0-0.2,0-0.3V6.2C13.9,5.7,13.5,5.2,12.9,5.2z M7.9,9.6l0.8,0.8c0.1,0.2,0.4,0.2,0.6,0.1c0,0,0,0,0.1-0.1l0.8-0.8l2.4,2.4h-7
	L7.9,9.6z M5.5,6h7L9,9.5L5.5,6z M10.8,9l2.4-2.3v4.7L10.8,9z M7.3,9l-2.4,2.4V6.6L7.3,9z"/>
</svg>
