<?xml version="1.0" encoding="utf-8"?>
<!-- Generator: Adobe Illustrator 22.0.1, SVG Export Plug-In . SVG Version: 6.00 Build 0)  -->
<svg version="1.1" id="圖層_1" xmlns="http://www.w3.org/2000/svg" xmlns:xlink="http://www.w3.org/1999/xlink" x="0px" y="0px"
	 viewBox="0 0 24 24" style="enable-background:new 0 0 24 24;" xml:space="preserve">
<style type="text/css">
	.st0{fill:#16E9D8;}
	.st1{fill:#3E3A39;}
</style>
<title>index</title>
<g>
	<circle class="st0" cx="12" cy="12" r="11.7"/>
	<path class="st0" d="M12,0.7c6.3,0,11.3,5.1,11.3,11.3S18.3,23.3,12,23.3S0.7,18.3,0.7,12C0.7,5.7,5.7,0.7,12,0.7 M12,0
		C5.4,0,0,5.4,0,12s5.4,12,12,12s12-5.4,12-12S18.6,0,12,0z"/>
	<path class="st1" d="M13.1,17.6v-5h1c0.7,0,1.2-0.5,1.3-1.1l0.2-1.3h-2.5V8.6c0-0.7,0.2-1.2,1.2-1.2l0,0c0.7,0,1.3-0.6,1.3-1.3V5.2
		c-0.6-0.1-1.3-0.1-1.9-0.1c-1.6-0.1-3.1,1.1-3.2,2.7c0,0.2,0,0.4,0,0.5v1.8H9.7c-0.7,0-1.3,0.6-1.3,1.3c0,0,0,0,0,0v1.2h2.2v6.3
		h1.3C12.5,18.9,13.1,18.4,13.1,17.6z"/>
</g>
</svg>
