<svg id="圖層_1" data-name="圖層 1" xmlns="http://www.w3.org/2000/svg" viewBox="0 0 330.52 454.37"><defs><style>.cls-1{fill:#dbdcdc;}</style></defs><title>LOGO animate</title><path class="cls-1" d="M315.3,194H94.4v-7.87a7.05,7.05,0,0,1,7-7h220.9V187A7,7,0,0,1,315.3,194Zm-.53,186.09h7.87V238.88a7.69,7.69,0,0,0-4.14-7,7.45,7.45,0,0,0-10.28,4L270.39,333V238.07a7.05,7.05,0,0,0-7.05-7h-7.87v141.7a7.47,7.47,0,0,0,6.08,7.34,8.15,8.15,0,0,0,1.38.13,7.46,7.46,0,0,0,6.95-4.76l37.84-97.14v94.78A7,7,0,0,0,314.77,380.12ZM237.39,10.77,242.24,0H177.17a7.06,7.06,0,0,0-6.43,4.15l-4.85,10.77H231A7.07,7.07,0,0,0,237.39,10.77Zm-69.22,227.3V293.5h48.9V238.07a7.05,7.05,0,0,1,7.05-7H232V352.57a27.61,27.61,0,0,1-27.61,27.61H180.87a27.62,27.62,0,0,1-27.62-27.61V231h7.87A7,7,0,0,1,168.17,238.07Zm0,70.35v44.15a12.7,12.7,0,0,0,12.7,12.69h23.51a12.69,12.69,0,0,0,12.69-12.69V308.42ZM278.9,73.86v7h41.67v7.87a7,7,0,0,1-7.05,7H278.9v38.54h34.62a7.05,7.05,0,0,1,7.05,7.05v7.87H115.16c-13.08,0-20.88-8-20.88-21.29v-25.8c0-13.33,7.8-21.29,20.88-21.29H264V66.81h7.87A7.05,7.05,0,0,1,278.9,73.86ZM264,95.81h-147c-4.4,0-7.74,1-7.74,6.37V128c0,5.41,3.34,6.37,7.74,6.37H264Zm-69.19,329c-18.23-6.65-45.73-15.48-73.9-15.48a101.12,101.12,0,0,0-51.18,13.32l-.13.08a25.94,25.94,0,0,0-12.76,22.54v6l0,0c17.84-18,39.38-27.06,64-27.06,25.81,0,51.62,8.32,68.79,14.58,21.61,7.88,45.13,15.58,73.9,15.58a101.1,101.1,0,0,0,51.78-13.68,26.36,26.36,0,0,0,13.06-22.77v-6.37c-18,18.51-39.82,27.9-64.84,27.9C237.24,439.45,215.15,432.2,194.79,424.77ZM64.28,93.71a42.88,42.88,0,0,1,42.88-42.88H315.43c10,0,10.9-5.83,15.09-14.92H107.16a57.8,57.8,0,0,0-57.8,57.8V266.46c0,96.59-12.35,106.2-42.66,106.2H0S8.47,392,30.39,384c28.17-10.52,33.89-45.08,33.89-117.5ZM117.47,246a7.05,7.05,0,0,0,7-7.05v-7.87H99.72a7,7,0,0,0-7,7V246h8.46V365.26H99.72a7.05,7.05,0,0,0-7,7.05v7.87h24.8a7,7,0,0,0,7-7v-7.88h-8.47V246Z"/></svg>