<svg id="圖層_1" data-name="圖層 1" xmlns="http://www.w3.org/2000/svg" xmlns:xlink="http://www.w3.org/1999/xlink" viewBox="0 0 900 450"><defs><style>.cls-1{fill:none;}.cls-2{clip-path:url(#clip-path);}.cls-3{fill:#3e3a39;}.cls-4{opacity:0.3;}.cls-5{clip-path:url(#clip-path-2);}</style><clipPath id="clip-path"><path class="cls-1" d="M1693.79,165.39A123.14,123.14,0,0,0,1516.35,3.33a224,224,0,0,0-112.83-188.76c-107.46-61.44-244.37-24.14-305.81,83.32S1073.56,142.26,1181,203.7c98.86,56.53,222.6,29.43,289.62-58.94a123.1,123.1,0,0,0,223.15,20.63Z"/></clipPath><clipPath id="clip-path-2"><rect class="cls-1" x="-0.08" y="-0.35" width="900" height="450"/></clipPath></defs><title>contact-bg1</title><g class="cls-2"><path class="cls-3" d="M1199.41,196.46c26.28-46,81.17-52.32,117-31.86,33.23,19,39.48,53.58,43.21,74.23,4.9,27.13,12.65,57.51,42.71,74.7,41.45,23.7,92.28,10.67,117.44-29.46h0c26.28-46,81.17-52.33,117-31.86,33.23,19,39.48,53.57,43.21,74.23,4.9,27.12,12.65,57.51,42.71,74.7,41.16,23.53,91.58,10.85,116.92-28.63l.11.06c26.28-46,81.18-52.33,117-31.86,33.23,19,39.48,53.57,43.22,74.23,4.9,27.13,12.65,57.51,42.71,74.7,42.55,24.33,95,10,119.41-32.73l-1.6-.91c-23.89,41.79-75.24,55.86-116.9,32-29.38-16.79-37-46.71-41.81-73.43-3.79-21-10.14-56.07-44.11-75.5-35.46-20.28-89.29-14.76-117,28.45l-.11-.06c-23.89,41.79-75.24,55.86-116.9,32-29.37-16.8-37-46.71-41.81-73.43-3.79-21-10.13-56.07-44.11-75.5-35.69-20.41-90-14.68-117.49,29.29h0c-23.9,41.78-75.24,55.86-116.9,32-29.38-16.8-37-46.71-41.82-73.44-3.79-21-10.13-56.06-44.11-75.5-35.46-20.27-89.29-14.76-117,28.46l-.11-.07c-23.89,41.79-75.24,55.87-116.9,32-29.37-16.79-37-46.7-41.82-73.43-3.79-21-10.13-56.07-44.11-75.5-36.55-20.9-92.62-14.4-119.47,32.55l1.6.91c26.28-46,81.17-52.32,117-31.86,33.24,19,39.48,53.57,43.21,74.23,4.91,27.13,12.66,57.51,42.72,74.7,41.16,23.54,91.58,10.85,116.92-28.63Z"/></g><g class="cls-4"><g class="cls-5"><path class="cls-3" d="M-94.22-362.95c43.16,24.67,51.27,69.56,56.12,96.39,6.36,35.22,16.43,74.68,55.46,97C70.81-139,136.28-155.47,169.19-206.74l.14.08C203.46-266.34,274.73-274.6,321.2-248c43.16,24.67,51.27,69.56,56.12,96.39,6.36,35.22,16.42,74.67,55.46,97C486.6-23.87,552.59-40.79,585.27-92.9h0c34.13-59.68,105.4-67.95,151.87-41.37,43.16,24.67,51.27,69.56,56.12,96.38,6.36,35.23,16.42,74.68,55.46,97C904,90.72,972.1,72.06,1003.8,16.63l-2.08-1.18C970.7,69.71,904,88,849.92,57.05c-38.14-21.81-48-60.65-54.29-95.35-4.92-27.23-13.16-72.81-57.28-98-46.34-26.49-116.81-19-152.56,38h0c-31,54.26-97.7,72.53-151.8,41.6-38.14-21.81-48-60.65-54.29-95.35-4.92-27.23-13.16-72.81-57.28-98-46.05-26.33-115.94-19.16-151.91,37l-.14-.08c-31,54.26-97.7,72.53-151.8,41.6-38.14-21.81-48-60.65-54.29-95.35C-40.67-294.22-48.91-339.8-93-365c-47.47-27.14-120.27-18.7-155.13,42.27l2.07,1.18C-212-381.26-140.69-389.52-94.22-362.95Z"/><path class="cls-3" d="M-125.07-309C-81.92-284.31-73.81-239.42-69-212.6c6.37,35.23,16.42,74.68,55.46,97C40-85,105.42-101.51,138.33-152.77l.14.08c34.13-59.69,105.41-67.95,151.87-41.38,43.16,24.68,51.27,69.57,56.12,96.39,6.36,35.23,16.42,74.68,55.46,97C455.74,30.1,521.74,13.18,554.41-38.93h0c34.13-59.69,105.41-67.95,151.88-41.38,43.15,24.68,51.26,69.57,56.11,96.39,6.36,35.23,16.43,74.68,55.46,97,53.45,30.56,118.92,14.1,151.83-37.17l.14.08c34.13-59.69,105.4-67.95,151.87-41.38,43.16,24.68,51.27,69.57,56.12,96.39,6.36,35.23,16.42,74.68,55.46,97,55.26,31.6,123.36,12.93,155.06-42.49l-2.08-1.19c-31,54.26-97.7,72.54-151.8,41.61-38.14-21.81-48-60.66-54.29-95.35-4.92-27.23-13.16-72.81-57.28-98C1076.86,6.22,1007,13.38,971,69.5l-.15-.09c-31,54.26-97.7,72.54-151.79,41.61-38.15-21.81-48-60.65-54.3-95.35-4.92-27.23-13.16-72.81-57.28-98-46.34-26.5-116.81-19.06-152.56,38h0c-31,54.26-97.7,72.53-151.79,41.6-38.15-21.81-48-60.65-54.3-95.35-4.92-27.23-13.16-72.81-57.28-98-46-26.33-115.94-19.17-151.9,36.94l-.14-.08c-31,54.26-97.71,72.54-151.8,41.61-38.15-21.81-48-60.66-54.3-95.35-4.92-27.24-13.16-72.82-57.28-98C-171.35-338.2-244.16-329.76-279-268.8l2.07,1.19C-242.82-327.3-171.54-335.56-125.07-309Z"/><path class="cls-3" d="M-155.93-255c43.15,24.68,51.26,69.57,56.11,96.39,6.37,35.23,16.43,74.68,55.46,97C9.09-31.07,74.56-47.54,107.47-98.81l.14.08C141.74-158.41,213-166.67,259.49-140.1c43.15,24.67,51.26,69.57,56.11,96.39C322-8.48,332,31,371.06,53.29,424.88,84.06,490.88,67.14,523.56,15h0C557.7-44.64,629-52.9,675.45-26.33c43.15,24.67,51.26,69.56,56.11,96.39,6.37,35.22,16.43,74.68,55.46,97,53.45,30.56,118.92,14.09,151.83-37.18l.14.09C973.12,70.28,1044.4,62,1090.86,88.59,1134,113.27,1142.13,158.16,1147,185c6.36,35.23,16.43,74.68,55.46,97,55.26,31.6,123.37,12.93,155.06-42.49l-2.08-1.19c-31,54.26-97.7,72.54-151.79,41.61-38.15-21.81-48-60.66-54.3-95.36-4.92-27.23-13.15-72.8-57.28-98-46-26.33-115.94-19.17-151.9,36.94l-.14-.08c-31,54.26-97.71,72.53-151.8,41.6-38.15-21.81-48-60.65-54.3-95.35-4.92-27.23-13.16-72.81-57.28-98-46.34-26.49-116.8-19-152.56,38l0,0c-31,54.26-97.7,72.54-151.79,41.61C334.1,29.4,324.22-9.44,318-44.14c-4.92-27.23-13.16-72.81-57.28-98-46-26.33-115.94-19.17-151.9,36.94l-.14-.08C77.6-51,10.92-32.77-43.17-63.7c-38.14-21.81-48-60.66-54.3-95.36-4.92-27.23-13.15-72.8-57.28-98C-202.21-284.23-275-275.8-309.88-214.83l2.07,1.18C-273.68-273.33-202.4-281.59-155.93-255Z"/><path class="cls-3" d="M-186.79-201.06c43.16,24.68,51.27,69.57,56.11,96.4,6.37,35.22,16.43,74.68,55.46,97C-21.77,22.9,43.7,6.43,76.61-44.84l.15.08c34.12-59.68,105.4-67.94,151.87-41.37,43.16,24.67,51.27,69.56,56.11,96.39,6.37,35.22,16.43,74.68,55.46,97C394,138,460,121.11,492.7,69h0C526.84,9.33,598.12,1.07,644.59,27.64,687.74,52.31,695.86,97.2,700.7,124c6.37,35.22,16.43,74.68,55.46,97,53.45,30.57,118.92,14.1,151.83-37.17l.15.08c34.12-59.68,105.4-67.95,151.87-41.37,43.15,24.67,51.26,69.56,56.11,96.39,6.37,35.22,16.42,74.67,55.46,97,55.26,31.59,123.37,12.93,155.06-42.5l-2.07-1.18c-31,54.26-97.71,72.53-151.8,41.6-38.15-21.81-48-60.65-54.3-95.35-4.92-27.23-13.16-72.81-57.28-98-46.05-26.33-115.94-19.16-151.9,37l-.14-.08c-31,54.26-97.71,72.53-151.8,41.6-38.14-21.81-48-60.65-54.3-95.35-4.92-27.23-13.15-72.81-57.28-98-46.33-26.49-116.8-19-152.56,38h0c-31,54.26-97.71,72.53-151.8,41.6-38.14-21.81-48-60.65-54.3-95.35-4.92-27.23-13.15-72.81-57.28-98-46-26.33-115.94-19.16-151.9,36.95l-.14-.08C46.74,2.92-19.94,21.19-74-9.74c-38.14-21.81-48-60.65-54.3-95.35-4.92-27.23-13.15-72.81-57.27-98-47.47-27.14-120.28-18.7-155.14,42.27l2.08,1.18C-304.54-219.36-233.26-227.63-186.79-201.06Z"/><path class="cls-3" d="M-217.65-147.09c43.16,24.68,51.27,69.57,56.11,96.39,6.37,35.23,16.43,74.68,55.47,97C-52.62,76.86,12.85,60.4,45.75,9.13l.15.08C80-50.47,151.3-58.74,197.77-32.17,240.92-7.49,249,37.4,253.88,64.22c6.37,35.23,16.43,74.68,55.47,97C363.16,192,429.16,175.08,461.84,123h0C496,63.3,567.26,55,613.73,81.6,656.89,106.28,665,151.17,669.84,178c6.37,35.23,16.43,74.68,55.47,97,53.44,30.56,118.91,14.1,151.82-37.17l.15.08c34.12-59.69,105.4-68,151.87-41.38,43.16,24.68,51.27,69.57,56.11,96.39,6.37,35.23,16.43,74.68,55.46,97,55.26,31.6,123.37,12.93,155.06-42.49l-2.07-1.19c-31,54.26-97.71,72.54-151.8,41.61-38.14-21.81-48-60.65-54.3-95.35-4.92-27.23-13.15-72.81-57.28-98-46-26.33-115.94-19.17-151.9,36.94l-.14-.08c-31,54.27-97.7,72.54-151.8,41.61-38.14-21.81-48-60.65-54.3-95.35-4.92-27.23-13.15-72.81-57.27-98-46.34-26.5-116.81-19.06-152.57,38l0,0c-31,54.27-97.71,72.54-151.8,41.61-38.14-21.81-48-60.66-54.29-95.35C251.31,36.56,243.07-9,199-34.24,152.91-60.57,83-53.41,47.05,2.71l-.14-.09c-31,54.26-97.7,72.54-151.8,41.61-38.14-21.81-48-60.66-54.3-95.35-4.91-27.23-13.15-72.81-57.27-98-47.47-27.14-120.28-18.7-155.13,42.26l2.07,1.19C-335.39-165.4-264.12-173.66-217.65-147.09Z"/><path class="cls-3" d="M-248.51-93.12c43.16,24.68,51.27,69.57,56.12,96.39C-186,38.5-176,78-136.93,100.27-83.48,130.83-18,114.36,14.9,63.09l.14.08C49.17,3.49,120.44-4.77,166.91,21.8c43.16,24.68,51.27,69.57,56.12,96.39,6.36,35.23,16.42,74.68,55.46,97C332.31,246,398.3,229,431,176.93h0c34.13-59.68,105.4-67.94,151.87-41.37C626,160.25,634.14,205.14,639,232c6.36,35.23,16.42,74.68,55.46,97,53.45,30.56,118.92,14.09,151.82-37.18l.15.09c34.12-59.69,105.4-68,151.87-41.38,43.15,24.67,51.27,69.56,56.12,96.39,6.36,35.23,16.42,74.68,55.46,97,55.25,31.6,123.36,12.93,155.05-42.49l-2.07-1.19c-31,54.26-97.71,72.54-151.8,41.61-38.14-21.81-48-60.66-54.29-95.36-4.93-27.23-13.16-72.81-57.28-98-46.05-26.32-115.94-19.16-151.91,37l-.14-.08c-31,54.26-97.7,72.54-151.8,41.6-38.14-21.81-48-60.65-54.29-95.35-4.92-27.23-13.16-72.8-57.28-98-46.34-26.5-116.81-19.06-152.56,38l0,0c-31,54.26-97.7,72.54-151.8,41.61-38.14-21.82-48-60.66-54.29-95.36-4.92-27.23-13.16-72.8-57.28-98C122.05-6.6,52.16.56,16.19,56.67l-.14-.08c-31,54.26-97.7,72.54-151.8,41.61-38.14-21.81-48-60.66-54.29-95.36-4.92-27.23-13.16-72.8-57.28-98-47.47-27.14-120.28-18.7-155.13,42.26l2.07,1.18C-366.25-111.43-295-119.69-248.51-93.12Z"/><path class="cls-3" d="M-279.36-39.15c43.15,24.67,51.26,69.56,56.11,96.39,6.36,35.22,16.42,74.67,55.46,97C-114.34,184.8-48.87,168.33-16,117.06l.14.08C18.31,57.46,89.58,49.2,136.05,75.77c43.16,24.67,51.27,69.56,56.12,96.39,6.36,35.22,16.42,74.68,55.46,97C301.45,299.93,367.44,283,400.12,230.9h0C434.27,171.23,505.55,163,552,189.54c43.15,24.67,51.26,69.56,56.11,96.39,6.36,35.22,16.43,74.68,55.46,97C717,413.49,782.51,397,815.42,345.75l.14.08c34.13-59.68,105.4-67.94,151.87-41.37,43.16,24.67,51.27,69.56,56.12,96.39,6.36,35.22,16.42,74.67,55.46,97,55.26,31.59,123.36,12.93,155-42.5l-2.07-1.18c-31,54.26-97.7,72.53-151.8,41.6-38.14-21.81-48-60.65-54.29-95.35-4.92-27.23-13.16-72.81-57.28-98-46-26.33-115.94-19.16-151.91,36.95l-.14-.08c-31,54.26-97.7,72.53-151.79,41.6-38.15-21.81-48-60.65-54.3-95.35-4.92-27.23-13.16-72.81-57.28-98-46.34-26.49-116.81-19.05-152.56,38h0c-31,54.26-97.7,72.53-151.79,41.6-38.15-21.81-48-60.65-54.3-95.35-4.92-27.23-13.16-72.81-57.28-98-46.05-26.32-115.94-19.16-151.9,37l-.15-.08c-31,54.26-97.7,72.53-151.79,41.6-38.15-21.81-48-60.65-54.3-95.35-4.92-27.23-13.16-72.81-57.28-98C-325.64-68.37-398.45-59.93-433.31,1l2.07,1.19C-397.11-57.46-325.83-65.73-279.36-39.15Z"/><path class="cls-3" d="M-310.22,14.81c43.15,24.68,51.26,69.57,56.11,96.39,6.37,35.23,16.43,74.68,55.46,97C-145.2,238.76-79.73,222.3-46.82,171l.14.08c34.13-59.69,105.41-68,151.88-41.38,43.15,24.68,51.26,69.57,56.11,96.39,6.37,35.23,16.42,74.68,55.46,97,53.82,30.78,119.82,13.86,152.5-38.25h0c34.13-59.69,105.41-67.95,151.88-41.38,43.15,24.67,51.26,69.57,56.11,96.39,6.37,35.23,16.42,74.68,55.46,97,53.45,30.56,118.92,14.09,151.83-37.17l.14.08c34.13-59.68,105.41-67.95,151.87-41.38,43.16,24.68,51.27,69.57,56.12,96.39,6.36,35.23,16.42,74.68,55.46,97,55.26,31.6,123.36,12.93,155.06-42.49l-2.08-1.18c-31,54.26-97.7,72.53-151.79,41.6-38.15-21.81-48-60.65-54.3-95.35-4.92-27.23-13.15-72.81-57.28-98-46-26.33-115.94-19.17-151.9,36.95l-.14-.09c-31,54.26-97.71,72.54-151.8,41.61-38.15-21.81-48-60.66-54.3-95.35-4.92-27.24-13.16-72.82-57.28-98-46.34-26.5-116.8-19.06-152.56,38l0,0c-31,54.26-97.7,72.54-151.79,41.61-38.15-21.81-48-60.66-54.3-95.35-4.92-27.24-13.16-72.81-57.28-98-46-26.33-115.94-19.17-151.9,37l-.14-.08c-31,54.25-97.71,72.53-151.8,41.6-38.14-21.81-48-60.65-54.3-95.35-4.92-27.23-13.15-72.81-57.28-98C-356.5-14.4-429.31-6-464.17,55l2.07,1.19C-428-3.5-356.69-11.76-310.22,14.81Z"/><path class="cls-3" d="M-341.08,68.78c43.15,24.67,51.27,69.56,56.11,96.39,6.37,35.23,16.43,74.68,55.46,97,53.45,30.56,118.92,14.09,151.83-37.18l.15.09c34.12-59.69,105.4-68,151.87-41.38,43.16,24.68,51.27,69.57,56.11,96.39,6.37,35.23,16.43,74.68,55.46,97,53.82,30.77,119.82,13.85,152.5-38.26h0c34.12-59.68,105.4-67.94,151.87-41.37,43.15,24.68,51.27,69.57,56.11,96.39,6.37,35.23,16.43,74.68,55.46,97C655.32,521.42,720.79,505,753.7,453.68l.14.08c34.13-59.68,105.41-67.94,151.88-41.37C948.87,437.06,957,482,961.83,508.78c6.37,35.23,16.42,74.68,55.46,97,55.26,31.59,123.37,12.93,155.06-42.49l-2.07-1.19c-31,54.26-97.71,72.54-151.8,41.61-38.15-21.82-48-60.66-54.3-95.36-4.92-27.23-13.16-72.81-57.28-98C860.86,384,791,391.15,755,447.26l-.14-.08c-31,54.26-97.71,72.54-151.8,41.6-38.14-21.8-48-60.65-54.3-95.35-4.92-27.23-13.15-72.8-57.28-98-46.33-26.5-116.8-19.06-152.56,38l0,0c-31,54.26-97.71,72.54-151.8,41.61-38.14-21.81-48-60.66-54.3-95.35-4.92-27.24-13.15-72.81-57.28-98-46-26.33-115.94-19.17-151.9,36.94l-.14-.08c-31,54.26-97.71,72.54-151.8,41.61-38.14-21.81-48-60.66-54.3-95.36-4.92-27.23-13.16-72.81-57.27-98C-387.36,39.56-460.17,48-495,109l2.08,1.18C-458.83,50.47-387.55,42.21-341.08,68.78Z"/><path class="cls-3" d="M-371.94,122.75c43.16,24.67,51.27,69.56,56.12,96.39,6.36,35.22,16.42,74.67,55.46,97,53.45,30.56,118.92,14.09,151.82-37.18l.15.08C-74.27,219.36-3,211.1,43.48,237.67c43.15,24.67,51.27,69.56,56.11,96.39,6.37,35.22,16.43,74.68,55.46,97,53.82,30.77,119.82,13.85,152.5-38.26h0c34.12-59.68,105.4-67.95,151.87-41.37,43.15,24.67,51.27,69.56,56.11,96.38,6.37,35.23,16.43,74.69,55.47,97,53.44,30.56,118.91,14.09,151.82-37.18l.15.08c34.12-59.68,105.4-67.94,151.87-41.37C918,491,926.13,535.92,931,562.75c6.37,35.22,16.43,74.68,55.46,97,55.26,31.59,123.37,12.93,155.06-42.5l-2.07-1.18c-31,54.26-97.71,72.53-151.8,41.6-38.14-21.81-48-60.65-54.3-95.35-4.92-27.23-13.15-72.81-57.28-98-46-26.33-115.94-19.16-151.9,37l-.14-.08c-31,54.26-97.7,72.53-151.8,41.6-38.14-21.81-48-60.65-54.3-95.35-4.92-27.23-13.16-72.81-57.27-98-46.34-26.49-116.81-19.05-152.57,38h0c-31,54.26-97.71,72.53-151.8,41.61-38.15-21.82-48-60.66-54.3-95.36-4.92-27.23-13.16-72.81-57.27-98-46.05-26.33-115.94-19.16-151.91,37l-.14-.08c-31,54.26-97.7,72.53-151.8,41.6-38.14-21.81-48-60.65-54.3-95.35-4.91-27.23-13.15-72.81-57.27-98C-418.22,93.53-491,102-525.89,162.94l2.08,1.18C-489.68,104.44-418.41,96.18-371.94,122.75Z"/><path class="cls-3" d="M-139.25,333c34.13-59.68,105.4-67.95,151.87-41.38C55.78,316.31,63.89,361.2,68.74,388c6.36,35.23,16.42,74.68,55.46,97C178,515.8,244,498.88,276.69,446.77h0c34.13-59.69,105.4-67.95,151.87-41.38,43.16,24.68,51.27,69.57,56.12,96.39,6.36,35.23,16.42,74.68,55.46,97,53.45,30.56,118.92,14.1,151.82-37.17l.15.08c34.12-59.68,105.4-68,151.87-41.38,43.15,24.68,51.27,69.57,56.12,96.39,6.36,35.23,16.42,74.68,55.46,97,55.25,31.6,123.36,12.94,155.05-42.49l-2.07-1.19c-31,54.27-97.71,72.54-151.8,41.61-38.14-21.81-48-60.66-54.29-95.35-4.93-27.24-13.16-72.81-57.28-98-46.05-26.33-115.94-19.17-151.91,37l-.14-.09c-31,54.26-97.7,72.54-151.8,41.61-38.14-21.81-48-60.66-54.29-95.35-4.92-27.23-13.16-72.81-57.28-98-46.34-26.5-116.81-19.06-152.56,38h0c-31,54.26-97.7,72.53-151.8,41.6-38.14-21.81-48-60.65-54.29-95.35-4.92-27.23-13.16-72.81-57.28-98-46.05-26.33-115.94-19.17-151.91,36.95l-.14-.08c-31,54.26-97.7,72.53-151.8,41.6-38.14-21.81-48-60.65-54.29-95.35-4.92-27.23-13.16-72.81-57.28-98-47.47-27.14-120.28-18.7-155.13,42.26l2.07,1.19c34.13-59.68,105.4-68,151.87-41.38,43.16,24.68,51.27,69.57,56.12,96.39,6.36,35.23,16.43,74.68,55.46,97,53.45,30.57,118.92,14.1,151.83-37.17Z"/><path class="cls-3" d="M661.27,615.66c34.13-59.68,105.4-67.94,151.87-41.37,43.16,24.68,51.27,69.57,56.12,96.39,6.36,35.23,16.42,74.68,55.46,97,55.26,31.6,123.36,12.93,155-42.49L1077.7,724c-31,54.26-97.7,72.54-151.8,41.61-38.14-21.82-48-60.66-54.29-95.36-4.92-27.23-13.16-72.8-57.28-98-46.05-26.33-115.94-19.17-151.91,36.94l-.14-.08c-31,54.26-97.7,72.54-151.8,41.61-38.14-21.81-48-60.66-54.29-95.36-4.92-27.23-13.16-72.8-57.28-98-46.34-26.5-116.81-19.06-152.56,38l0,0c-31,54.26-97.7,72.54-151.8,41.61-38.14-21.81-48-60.66-54.29-95.35-4.92-27.23-13.16-72.81-57.28-98-47.47-27.14-120.27-18.7-155.13,42.26l2.07,1.19C-136,327.29-64.71,319-18.24,345.6,24.92,370.28,33,415.17,37.88,442c6.36,35.23,16.42,74.68,55.46,97,53.82,30.77,119.81,13.85,152.49-38.26h0c34.13-59.68,105.4-67.94,151.87-41.37,43.16,24.68,51.27,69.57,56.12,96.39,6.36,35.23,16.43,74.68,55.46,97,53.45,30.56,118.92,14.09,151.83-37.18Z"/></g></g></svg>