<svg id="圖層_1" data-name="圖層 1" xmlns="http://www.w3.org/2000/svg" xmlns:xlink="http://www.w3.org/1999/xlink" viewBox="0 0 900 450"><defs><style>.cls-1{fill:none;}.cls-2{clip-path:url(#clip-path);}.cls-3{fill:#3e3a39;}</style><clipPath id="clip-path"><path class="cls-1" d="M633.9,318.89a73.88,73.88,0,0,0-106.46-97.24A134.52,134.52,0,1,0,500,306.51,73.85,73.85,0,0,0,633.9,318.89Z"/></clipPath></defs><title>contact-bg</title><g class="cls-2"><path class="cls-3" d="M372.35-9C392.29,2.42,396,23.16,398.27,35.55c2.94,16.28,7.59,34.51,25.63,44.82,25.53,14.6,57,6,71.65-19.63l-1-.55c-14.34,25.07-45.15,33.52-70.14,19.22-17.63-10.07-22.19-28-25.09-44.06-2.27-12.58-6.08-33.64-26.47-45.3C351-22.49,317.32-18.59,301.21,9.58l1,.55C317.94-17.45,350.87-21.26,372.35-9Z"/><path class="cls-3" d="M358.09,16C378,27.35,381.77,48.09,384,60.49c2.95,16.28,7.6,34.51,25.63,44.82A51.92,51.92,0,0,0,479.8,88.13l.06,0c15.77-27.58,48.71-31.4,70.18-19.12C570,80.45,573.73,101.2,576,113.59c2.94,16.28,7.58,34.5,25.62,44.82a51.93,51.93,0,0,0,70.47-17.68h0c15.77-27.58,48.71-31.4,70.18-19.12,19.94,11.4,23.69,32.14,25.93,44.54,2.94,16.27,7.59,34.5,25.62,44.82,25.54,14.6,57,6,71.65-19.64l-1-.54c-14.33,25.07-45.14,33.51-70.14,19.22-17.62-10.08-22.19-28-25.09-44.06-2.27-12.58-6.07-33.64-26.46-45.3-21.41-12.24-54-8.8-70.5,17.57h0c-14.33,25.07-45.14,33.51-70.14,19.22-17.63-10.08-22.19-28-25.09-44.06-2.27-12.58-6.08-33.64-26.46-45.3C529.31,55.93,497,59.24,480.4,85.16l-.07,0c-14.34,25.07-45.15,33.51-70.14,19.22-17.62-10.08-22.19-28-25.09-44.06C382.83,47.71,379,26.65,358.63,15,336.7,2.45,303.06,6.35,287,34.52l1,.55C303.68,7.49,336.61,3.67,358.09,16Z"/><path class="cls-3" d="M343.83,40.89c19.94,11.4,23.69,32.14,25.93,44.53,2.94,16.28,7.59,34.51,25.62,44.82a51.91,51.91,0,0,0,70.16-17.17l.06,0c15.77-27.58,48.71-31.4,70.18-19.12,19.94,11.4,23.69,32.14,25.93,44.54,2.94,16.27,7.59,34.5,25.62,44.82a51.93,51.93,0,0,0,70.47-17.68h0c15.77-27.57,48.71-31.39,70.18-19.11,19.94,11.4,23.69,32.14,25.93,44.53,2.94,16.28,7.59,34.51,25.63,44.82a51.9,51.9,0,0,0,70.15-17.17l.07,0c15.77-27.57,48.7-31.39,70.17-19.11,19.94,11.4,23.69,32.14,25.93,44.54,2.94,16.27,7.59,34.5,25.63,44.82,25.53,14.59,57,6,71.64-19.64l-1-.55C1027.84,293.9,997,302.35,972,288.06,954.41,278,949.84,260,947,244c-2.28-12.58-6.08-33.64-26.47-45.3-21.28-12.17-53.57-8.86-70.19,17.07l-.07,0c-14.33,25.07-45.14,33.52-70.14,19.23-17.62-10.08-22.19-28-25.09-44.06-2.27-12.59-6.07-33.64-26.46-45.3-21.41-12.25-54-8.81-70.5,17.57h0c-14.33,25.08-45.14,33.52-70.14,19.23-17.62-10.08-22.19-28-25.09-44.06-2.27-12.58-6.07-33.64-26.46-45.3-21.28-12.17-53.58-8.86-70.19,17.07l-.07,0c-14.33,25.07-45.14,33.52-70.14,19.23-17.62-10.08-22.19-28-25.09-44.06-2.27-12.59-6.08-33.65-26.46-45.3-21.94-12.54-55.58-8.64-71.69,19.53l1,.54C289.42,32.43,322.36,28.61,343.83,40.89Z"/><path class="cls-3" d="M329.57,65.82c19.94,11.4,23.69,32.15,25.93,44.54,2.94,16.28,7.59,34.51,25.62,44.82A51.92,51.92,0,0,0,451.28,138l.07,0c15.76-27.58,48.7-31.39,70.17-19.12,19.94,11.4,23.69,32.15,25.93,44.54,2.94,16.28,7.59,34.51,25.63,44.82a51.92,51.92,0,0,0,70.46-17.68h0c15.77-27.58,48.7-31.4,70.17-19.12,19.94,11.4,23.69,32.15,25.93,44.54,2.94,16.28,7.59,34.51,25.63,44.82a51.91,51.91,0,0,0,70.15-17.18l.07,0c15.77-27.58,48.7-31.39,70.17-19.12,19.94,11.41,23.69,32.15,25.93,44.54,2.94,16.28,7.59,34.51,25.63,44.82,25.53,14.6,57,6,71.64-19.63l-.95-.55c-14.34,25.07-45.15,33.52-70.14,19.22-17.63-10.07-22.2-28-25.09-44.05-2.28-12.59-6.08-33.65-26.47-45.31-21.28-12.16-53.57-8.85-70.19,17.08l-.06,0c-14.34,25.07-45.15,33.51-70.14,19.22-17.63-10.08-22.2-28-25.09-44.06-2.28-12.58-6.08-33.64-26.47-45.3-21.41-12.24-54-8.8-70.49,17.58h0c-14.33,25.07-45.14,33.52-70.14,19.22-17.62-10.08-22.19-28-25.09-44.06-2.27-12.58-6.08-33.64-26.46-45.3-21.28-12.16-53.57-8.85-70.19,17.08l-.07,0c-14.33,25.07-45.14,33.51-70.14,19.22-17.62-10.07-22.19-28-25.09-44.06-2.27-12.58-6.07-33.64-26.46-45.3-21.94-12.54-55.58-8.64-71.68,19.53l.95.55C275.16,57.36,308.1,53.54,329.57,65.82Z"/><path class="cls-3" d="M315.31,90.76c19.94,11.4,23.69,32.14,25.93,44.54,2.94,16.27,7.59,34.5,25.63,44.82A51.91,51.91,0,0,0,437,162.94l.07,0c15.77-27.58,48.7-31.4,70.17-19.12C527.2,155.26,531,176,533.19,188.4c2.94,16.27,7.59,34.5,25.63,44.82a51.91,51.91,0,0,0,70.46-17.68h0c15.77-27.58,48.7-31.4,70.17-19.12,19.94,11.4,23.69,32.14,25.93,44.54,2.94,16.27,7.59,34.5,25.63,44.82a51.91,51.91,0,0,0,70.15-17.18l.07,0c15.77-27.58,48.7-31.4,70.18-19.12,19.93,11.4,23.68,32.14,25.92,44.54,2.94,16.27,7.59,34.5,25.63,44.82,25.53,14.6,57,6,71.65-19.64l-1-.54c-14.34,25.07-45.15,33.51-70.14,19.22-17.63-10.08-22.2-28-25.09-44.06-2.28-12.58-6.08-33.64-26.47-45.3-21.27-12.17-53.57-8.86-70.19,17.07l-.06,0c-14.34,25.08-45.15,33.52-70.14,19.23-17.63-10.08-22.19-28-25.09-44.06-2.28-12.58-6.08-33.64-26.47-45.3-21.41-12.24-54-8.8-70.49,17.57h0c-14.34,25.07-45.15,33.51-70.14,19.22-17.63-10.08-22.2-28-25.09-44.06-2.28-12.58-6.08-33.64-26.47-45.3-21.28-12.16-53.57-8.85-70.19,17.07l-.06,0c-14.34,25.08-45.15,33.52-70.15,19.23-17.62-10.08-22.19-28-25.09-44.06-2.27-12.58-6.07-33.64-26.46-45.3-21.93-12.54-55.58-8.64-71.68,19.53l.95.55C260.9,82.3,293.84,78.48,315.31,90.76Z"/><path class="cls-3" d="M301.05,115.69C321,127.1,324.74,147.84,327,160.23c2.94,16.28,7.59,34.51,25.63,44.82a51.91,51.91,0,0,0,70.15-17.17l.07,0c15.77-27.57,48.7-31.39,70.17-19.12,19.94,11.41,23.69,32.15,25.93,44.54,2.94,16.28,7.59,34.51,25.63,44.82A51.91,51.91,0,0,0,615,240.48h0c15.77-27.58,48.7-31.39,70.18-19.12,19.94,11.41,23.68,32.15,25.92,44.54,2.94,16.28,7.59,34.51,25.63,44.82a51.9,51.9,0,0,0,70.15-17.17l.07,0c15.77-27.57,48.7-31.39,70.18-19.11,19.94,11.4,23.69,32.14,25.92,44.53,2.95,16.28,7.59,34.51,25.63,44.82,25.53,14.6,57,6,71.65-19.63l-1-.55c-14.34,25.07-45.15,33.52-70.14,19.23-17.63-10.08-22.19-28-25.09-44.06-2.27-12.58-6.08-33.64-26.47-45.3-21.27-12.17-53.57-8.86-70.19,17.07l-.06,0c-14.34,25.07-45.15,33.52-70.14,19.23-17.63-10.08-22.19-28-25.09-44.06-2.28-12.59-6.08-33.65-26.47-45.3-21.41-12.25-54-8.81-70.49,17.57h0C600.91,263,570.1,271.49,545.11,257.2c-17.63-10.08-22.2-28-25.09-44.06-2.28-12.59-6.08-33.65-26.47-45.3C472.28,155.67,440,159,423.36,184.91l-.06,0c-14.34,25.07-45.15,33.52-70.14,19.22C335.53,194,331,176.07,328.07,160c-2.28-12.59-6.08-33.65-26.47-45.3-21.93-12.54-55.57-8.65-71.68,19.52l1,.55C246.65,107.23,279.58,103.42,301.05,115.69Z"/><path class="cls-3" d="M286.79,140.63c19.94,11.4,23.69,32.15,25.93,44.54,2.94,16.28,7.59,34.51,25.63,44.82a51.91,51.91,0,0,0,70.15-17.18l.07,0c15.77-27.58,48.7-31.4,70.18-19.12,19.94,11.4,23.68,32.15,25.92,44.54,2.94,16.28,7.59,34.51,25.63,44.82a51.91,51.91,0,0,0,70.46-17.68h0C616.54,237.84,649.48,234,671,246.3c19.94,11.4,23.69,32.14,25.92,44.54,3,16.28,7.59,34.51,25.63,44.82a51.92,51.92,0,0,0,70.16-17.18l.06,0c15.77-27.58,48.71-31.4,70.18-19.12,19.94,11.4,23.69,32.15,25.93,44.54,2.94,16.28,7.59,34.51,25.62,44.82,25.54,14.6,57,6,71.65-19.63l-1-.55C970.81,393.65,940,402.09,915,387.8c-17.63-10.08-22.19-28-25.09-44.06-2.27-12.58-6.08-33.64-26.46-45.3-21.28-12.16-53.58-8.85-70.19,17.07l-.07,0C778.85,340.55,748,349,723.05,334.7c-17.63-10.08-22.19-28-25.09-44.06-2.27-12.58-6.08-33.64-26.47-45.3-21.41-12.24-54-8.8-70.49,17.57h0c-14.34,25.07-45.15,33.51-70.14,19.22-17.63-10.08-22.19-28-25.09-44.06-2.27-12.58-6.08-33.64-26.47-45.3-21.27-12.16-53.57-8.85-70.19,17.08l-.06,0C394.7,234.88,363.89,243.32,338.9,229,321.27,219,316.71,201,313.81,185c-2.28-12.58-6.08-33.64-26.47-45.3-21.93-12.54-55.57-8.64-71.68,19.53l1,.55C232.39,132.17,265.32,128.35,286.79,140.63Z"/><path class="cls-3" d="M272.54,165.57c19.93,11.4,23.68,32.14,25.92,44.53,2.94,16.28,7.59,34.51,25.63,44.83a51.91,51.91,0,0,0,70.15-17.18l.07,0c15.77-27.58,48.7-31.4,70.18-19.12,19.94,11.4,23.69,32.14,25.92,44.54C493.36,279.48,498,297.71,516,308a51.91,51.91,0,0,0,70.46-17.68h0c15.77-27.57,48.71-31.39,70.18-19.11,19.94,11.4,23.69,32.14,25.93,44.54,2.94,16.27,7.59,34.5,25.62,44.82a51.92,51.92,0,0,0,70.16-17.18l.06,0c15.77-27.58,48.71-31.4,70.18-19.12,19.94,11.4,23.69,32.14,25.93,44.54,2.94,16.27,7.59,34.5,25.62,44.82,25.54,14.6,57,6,71.65-19.64l-1-.55c-14.33,25.08-45.14,33.52-70.14,19.23-17.62-10.08-22.19-28-25.09-44.06-2.27-12.58-6.07-33.64-26.46-45.3-21.28-12.17-53.58-8.86-70.19,17.07l-.07,0c-14.33,25.08-45.14,33.52-70.14,19.23-17.62-10.08-22.19-28-25.09-44.06-2.27-12.58-6.08-33.64-26.46-45.3-21.42-12.24-54-8.81-70.5,17.57h0c-14.34,25.07-45.15,33.51-70.14,19.22C499,297,494.4,279,491.5,263c-2.27-12.58-6.08-33.64-26.47-45.3-21.27-12.17-53.57-8.86-70.19,17.07l-.06,0c-14.34,25.07-45.15,33.52-70.14,19.23-17.63-10.08-22.19-28-25.09-44.06-2.27-12.59-6.08-33.65-26.47-45.3-21.93-12.54-55.57-8.64-71.68,19.53l1,.54C218.13,157.11,251.06,153.29,272.54,165.57Z"/><path class="cls-3" d="M258.28,190.5C278.22,201.91,282,222.65,284.2,235c2.95,16.28,7.6,34.51,25.63,44.82A51.92,51.92,0,0,0,380,262.68l.06,0c15.77-27.58,48.71-31.39,70.18-19.12,19.94,11.4,23.69,32.15,25.93,44.54,2.94,16.28,7.58,34.51,25.62,44.82a51.93,51.93,0,0,0,70.47-17.67h0c15.77-27.58,48.71-31.4,70.18-19.12,19.94,11.4,23.69,32.15,25.93,44.54C671.3,357,676,375.22,694,385.53a51.91,51.91,0,0,0,70.15-17.18l.07,0c15.76-27.58,48.7-31.39,70.17-19.12,19.94,11.41,23.69,32.15,25.93,44.54,2.94,16.28,7.59,34.51,25.63,44.82,25.53,14.6,57,6,71.64-19.63l-1-.55c-14.33,25.07-45.14,33.52-70.14,19.23-17.62-10.08-22.19-28-25.09-44.06-2.27-12.59-6.07-33.65-26.46-45.3-21.28-12.17-53.57-8.86-70.19,17.07l-.07,0c-14.33,25.07-45.14,33.52-70.14,19.22-17.62-10.08-22.19-28-25.09-44.06-2.27-12.58-6.08-33.64-26.46-45.3-21.41-12.24-54-8.8-70.5,17.58h0c-14.33,25.07-45.14,33.52-70.14,19.22-17.63-10.07-22.19-28-25.09-44.05-2.27-12.59-6.08-33.65-26.46-45.3-21.28-12.17-53.58-8.86-70.19,17.07l-.07,0c-14.34,25.07-45.14,33.52-70.14,19.22-17.62-10.07-22.19-28-25.09-44.06-2.27-12.58-6.08-33.64-26.46-45.29-21.94-12.55-55.58-8.65-71.69,19.52l1,.55C203.87,182,236.81,178.23,258.28,190.5Z"/><path class="cls-3" d="M244,215.44C264,226.84,267.71,247.58,270,260c2.94,16.28,7.59,34.51,25.62,44.82a51.92,51.92,0,0,0,70.16-17.18l.06,0c15.77-27.58,48.71-31.4,70.18-19.12,19.94,11.4,23.69,32.15,25.93,44.54,2.94,16.28,7.59,34.51,25.63,44.82A51.92,51.92,0,0,0,558,340.22h0c15.76-27.58,48.7-31.4,70.17-19.12,19.94,11.4,23.69,32.14,25.93,44.54,2.94,16.28,7.59,34.5,25.63,44.82a51.91,51.91,0,0,0,70.15-17.18l.07,0c15.77-27.58,48.7-31.4,70.17-19.12,19.94,11.4,23.69,32.14,25.93,44.54,2.94,16.28,7.59,34.5,25.63,44.82,25.53,14.6,57,6,71.64-19.64l-1-.54c-14.34,25.07-45.15,33.51-70.14,19.22-17.63-10.08-22.2-28-25.09-44.06-2.28-12.58-6.08-33.64-26.47-45.3-21.28-12.16-53.57-8.85-70.19,17.07l-.07,0c-14.33,25.07-45.14,33.51-70.14,19.22-17.62-10.08-22.19-28-25.09-44.06-2.27-12.58-6.07-33.64-26.46-45.3-21.41-12.24-54-8.8-70.5,17.57h0c-14.33,25.07-45.14,33.51-70.14,19.22-17.62-10.08-22.19-28-25.09-44.06-2.27-12.58-6.07-33.64-26.46-45.3-21.28-12.16-53.58-8.85-70.19,17.07l-.07,0c-14.33,25.07-45.14,33.51-70.14,19.22-17.62-10.08-22.19-28-25.09-44.06-2.27-12.58-6.08-33.64-26.46-45.3C222.63,201.94,189,205.84,172.88,234l1,.55C189.61,207,222.55,203.16,244,215.44Z"/><path class="cls-3" d="M229.76,240.38c19.94,11.4,23.69,32.14,25.93,44.53,2.94,16.28,7.59,34.51,25.63,44.82a51.9,51.9,0,0,0,70.15-17.17l.07,0c15.76-27.58,48.7-31.4,70.17-19.12,19.94,11.4,23.69,32.14,25.93,44.53,2.94,16.28,7.59,34.51,25.63,44.83a51.92,51.92,0,0,0,70.46-17.68h0c15.77-27.57,48.7-31.39,70.17-19.12,19.94,11.41,23.69,32.15,25.93,44.54,2.94,16.28,7.59,34.51,25.63,44.82a51.9,51.9,0,0,0,70.15-17.17l.07,0c15.77-27.57,48.7-31.39,70.17-19.11,19.95,11.4,23.69,32.14,25.93,44.54,2.94,16.27,7.59,34.5,25.63,44.82,25.53,14.59,57,6,71.65-19.64l-1-.55C913.77,493.39,883,501.84,858,487.55c-17.63-10.08-22.2-28-25.09-44.06-2.28-12.58-6.08-33.64-26.47-45.3-21.28-12.17-53.57-8.86-70.19,17.07l-.06,0C721.82,440.29,691,448.74,666,434.45c-17.63-10.08-22.2-28-25.09-44.06-2.28-12.59-6.08-33.65-26.47-45.3-21.41-12.25-54-8.81-70.49,17.57h0c-14.33,25.08-45.14,33.52-70.14,19.23-17.62-10.08-22.19-28-25.08-44.06-2.28-12.59-6.09-33.65-26.47-45.3-21.28-12.17-53.57-8.86-70.19,17.07l-.07,0c-14.33,25.07-45.14,33.52-70.14,19.23-17.62-10.08-22.19-28-25.09-44.06-2.27-12.59-6.07-33.64-26.46-45.3-21.93-12.54-55.58-8.64-71.68,19.53l1,.54C175.35,231.92,208.29,228.1,229.76,240.38Z"/><path class="cls-3" d="M337.28,337.53c15.77-27.58,48.7-31.39,70.17-19.12,19.94,11.41,23.69,32.15,25.93,44.54,2.94,16.28,7.59,34.51,25.63,44.82a51.91,51.91,0,0,0,70.46-17.68h0c15.77-27.58,48.7-31.4,70.17-19.12,19.94,11.4,23.69,32.15,25.93,44.54,2.94,16.28,7.59,34.51,25.63,44.82a51.91,51.91,0,0,0,70.15-17.18l.07,0c15.77-27.58,48.7-31.4,70.18-19.12,19.93,11.4,23.68,32.15,25.92,44.54,2.94,16.28,7.59,34.51,25.63,44.82,25.53,14.6,57,6,71.65-19.63l-1-.55c-14.34,25.07-45.15,33.52-70.14,19.22-17.63-10.07-22.19-28-25.09-44.06-2.27-12.58-6.08-33.64-26.47-45.3C770.88,411,738.58,414.27,722,440.2l-.06,0c-14.34,25.07-45.15,33.51-70.14,19.22-17.63-10.08-22.2-28-25.09-44.06-2.27-12.58-6.08-33.64-26.47-45.3-21.41-12.24-54-8.8-70.49,17.58h0c-14.34,25.07-45.15,33.52-70.14,19.22-17.63-10.08-22.2-28-25.09-44.06-2.28-12.58-6.08-33.64-26.47-45.3-21.28-12.16-53.57-8.85-70.19,17.08l-.06,0C323.41,359.56,292.6,368,267.6,353.71c-17.62-10.07-22.19-28-25.08-44.06-2.28-12.58-6.08-33.64-26.47-45.3-21.93-12.54-55.58-8.64-71.68,19.53l1,.55c15.76-27.58,48.7-31.4,70.17-19.12,19.94,11.4,23.69,32.15,25.93,44.54,2.94,16.28,7.59,34.51,25.63,44.82a51.91,51.91,0,0,0,70.15-17.18Z"/><path class="cls-3" d="M707.17,468.14c15.77-27.58,48.71-31.4,70.18-19.12,19.94,11.4,23.69,32.14,25.93,44.54,2.94,16.27,7.58,34.5,25.62,44.82,25.53,14.6,57,6,71.65-19.64l-1-.54c-14.34,25.07-45.15,33.51-70.14,19.22-17.63-10.08-22.19-28-25.09-44.06-2.27-12.58-6.08-33.64-26.47-45.3-21.27-12.17-53.57-8.86-70.19,17.07l-.06,0c-14.34,25.07-45.15,33.51-70.14,19.22-17.62-10.08-22.19-28-25.09-44.06-2.27-12.58-6.08-33.64-26.47-45.3-21.41-12.24-54-8.8-70.49,17.57h0C501.1,437.6,470.29,446,445.3,431.75c-17.63-10.08-22.19-28-25.09-44.06-2.28-12.58-6.08-33.64-26.47-45.3-21.93-12.54-55.57-8.64-71.68,19.53l1,.55c15.77-27.58,48.7-31.4,70.17-19.12,19.95,11.4,23.69,32.14,25.93,44.54,2.94,16.27,7.59,34.5,25.63,44.82A51.91,51.91,0,0,0,515.21,415h0c15.77-27.58,48.7-31.4,70.18-19.12,19.94,11.4,23.68,32.14,25.92,44.54,2.95,16.27,7.59,34.5,25.63,44.82a51.92,51.92,0,0,0,70.16-17.18Z"/></g></svg>