<svg id="圖層_1" data-name="圖層 1" xmlns="http://www.w3.org/2000/svg" xmlns:xlink="http://www.w3.org/1999/xlink" viewBox="0 0 900 450"><defs><style>.cls-1{fill:none;}.cls-2{clip-path:url(#clip-path);}.cls-3{fill:#3e3a39;}.cls-4{clip-path:url(#clip-path-2);}</style><clipPath id="clip-path"><path class="cls-1" d="M1693.79,165.39A123.14,123.14,0,0,0,1516.35,3.33a224,224,0,0,0-112.83-188.76c-107.46-61.44-244.37-24.14-305.81,83.32S1073.56,142.26,1181,203.7c98.86,56.53,222.6,29.43,289.62-58.94a123.1,123.1,0,0,0,223.15,20.63Z"/></clipPath><clipPath id="clip-path-2"><path class="cls-1" d="M691.76,334.62A86.39,86.39,0,0,0,567.28,220.93a157.28,157.28,0,1,0-32.06,99.22,86.35,86.35,0,0,0,156.54,14.47Z"/></clipPath></defs><title>contact-bg</title><g class="cls-2"><path class="cls-3" d="M1199.41,196.46c26.28-46,81.17-52.32,117-31.86,33.23,19,39.48,53.58,43.21,74.23,4.9,27.13,12.65,57.51,42.71,74.7,41.45,23.7,92.28,10.67,117.44-29.46h0c26.28-46,81.17-52.33,117-31.86,33.23,19,39.48,53.57,43.21,74.23,4.9,27.12,12.65,57.51,42.71,74.7,41.16,23.53,91.58,10.85,116.92-28.63l.11.06c26.28-46,81.18-52.33,117-31.86,33.23,19,39.48,53.57,43.22,74.23,4.9,27.13,12.65,57.51,42.71,74.7,42.55,24.33,95,10,119.41-32.73l-1.6-.91c-23.89,41.79-75.24,55.86-116.9,32-29.38-16.79-37-46.71-41.81-73.43-3.79-21-10.14-56.07-44.11-75.5-35.46-20.28-89.29-14.76-117,28.45l-.11-.06c-23.89,41.79-75.24,55.86-116.9,32-29.37-16.8-37-46.71-41.81-73.43-3.79-21-10.13-56.07-44.11-75.5-35.69-20.41-90-14.68-117.49,29.29h0c-23.9,41.78-75.24,55.86-116.9,32-29.38-16.8-37-46.71-41.82-73.44-3.79-21-10.13-56.06-44.11-75.5-35.46-20.27-89.29-14.76-117,28.46l-.11-.07c-23.89,41.79-75.24,55.87-116.9,32-29.37-16.79-37-46.7-41.82-73.43-3.79-21-10.13-56.07-44.11-75.5-36.55-20.9-92.62-14.4-119.47,32.55l1.6.91c26.28-46,81.17-52.32,117-31.86,33.24,19,39.48,53.57,43.21,74.23,4.91,27.13,12.66,57.51,42.72,74.7,41.16,23.54,91.58,10.85,116.92-28.63Z"/></g><g class="cls-4"><path class="cls-3" d="M386-48.72c23.31,13.33,27.69,37.58,30.31,52.07,3.44,19,8.87,40.34,30,52.4,29.86,17.07,66.65,7,83.77-23l-1.12-.64c-16.76,29.31-52.78,39.18-82,22.47-20.6-11.78-25.94-32.77-29.33-51.51-2.66-14.71-7.11-39.33-30.94-53-25.65-14.67-65-10.11-83.81,22.83l1.12.64C322.33-58.62,360.84-63.08,386-48.72Z"/><path class="cls-3" d="M369.28-19.57C392.59-6.24,397,18,399.59,32.5c3.44,19,8.88,40.35,30,52.41a60.71,60.71,0,0,0,82-20.09l.07.05c18.44-32.25,57-36.71,82.05-22.35C617,55.85,621.4,80.1,624,94.59c3.43,19,8.87,40.34,30,52.4,29.07,16.63,64.73,7.49,82.38-20.67h0c18.44-32.24,56.94-36.71,82-22.35,23.31,13.33,27.7,37.58,30.31,52.07,3.44,19,8.88,40.34,30,52.4,29.85,17.07,66.64,7,83.76-22.95l-1.12-.64c-16.76,29.31-52.78,39.18-82,22.47-20.61-11.78-26-32.76-29.34-51.51-2.65-14.71-7.1-39.33-30.94-53-25-14.32-63.1-10.3-82.42,20.54h0c-16.77,29.31-52.79,39.18-82,22.47-20.61-11.78-26-32.77-29.33-51.51-2.66-14.71-7.11-39.33-30.95-53-24.88-14.23-62.64-10.36-82.06,20l-.08,0c-16.76,29.31-52.78,39.19-82,22.48C409.59,72,404.25,51,400.86,32.27c-2.66-14.71-7.11-39.33-30.94-53-25.65-14.66-65-10.1-83.81,22.83l1.12.64C305.66-29.46,344.17-33.92,369.28-19.57Z"/><path class="cls-3" d="M352.61,9.59c23.31,13.32,27.69,37.58,30.31,52.07,3.44,19,8.87,40.34,30,52.4A60.69,60.69,0,0,0,494.9,94l.08,0c18.44-32.24,56.95-36.7,82-22.35,23.31,13.33,27.7,37.58,30.31,52.07,3.44,19,8.88,40.35,30,52.41,29.07,16.62,64.73,7.48,82.38-20.67h0c18.44-32.24,56.94-36.7,82-22.35,23.31,13.33,27.69,37.59,30.31,52.08,3.44,19,8.88,40.34,30,52.4a60.71,60.71,0,0,0,82-20.08l.08,0c18.43-32.24,56.94-36.71,82-22.35,23.32,13.33,27.7,37.58,30.32,52.07,3.44,19,8.87,40.34,30,52.4,29.85,17.07,66.65,7,83.77-22.95l-1.12-.64c-16.76,29.31-52.78,39.18-82,22.47-20.61-11.78-25.95-32.76-29.33-51.51-2.66-14.71-7.11-39.33-31-53-24.87-14.23-62.63-10.36-82.06,20l-.08-.05c-16.76,29.32-52.78,39.19-82,22.48-20.61-11.78-25.95-32.77-29.34-51.51-2.66-14.71-7.1-39.34-30.94-53-25-14.31-63.11-10.29-82.42,20.55h0c-16.76,29.31-52.78,39.19-82,22.48-20.61-11.79-26-32.77-29.34-51.52-2.65-14.71-7.1-39.33-30.94-53-24.88-14.22-62.64-10.35-82.06,20l-.08,0c-16.76,29.31-52.78,39.18-82,22.47-20.6-11.78-25.94-32.77-29.33-51.51-2.66-14.71-7.11-39.34-30.94-53-25.65-14.66-65-10.1-83.81,22.84l1.12.64C289-.31,327.5-4.77,352.61,9.59Z"/><path class="cls-3" d="M335.93,38.74c23.32,13.33,27.7,37.58,30.32,52.07,3.44,19,8.87,40.35,30,52.41a60.69,60.69,0,0,0,82-20.09l.08.05c18.44-32.25,56.94-36.71,82.05-22.35,23.31,13.32,27.7,37.58,30.31,52.07,3.44,19,8.88,40.34,30,52.4,29.07,16.63,64.73,7.49,82.38-20.67h0c18.44-32.24,56.94-36.71,82.05-22.35,23.31,13.33,27.69,37.58,30.31,52.07,3.44,19,8.88,40.34,30,52.4a60.7,60.7,0,0,0,82-20.08l.07,0c18.44-32.24,56.95-36.7,82-22.35,23.32,13.33,27.7,37.59,30.32,52.08,3.44,19,8.87,40.34,30,52.4,29.85,17.07,66.65,7,83.77-23l-1.12-.64c-16.76,29.32-52.79,39.19-82,22.48-20.61-11.78-26-32.77-29.33-51.51-2.66-14.71-7.11-39.34-30.95-53-24.87-14.22-62.63-10.35-82.06,20l-.08,0c-16.76,29.31-52.78,39.18-82,22.47-20.61-11.78-26-32.76-29.34-51.51-2.66-14.71-7.11-39.34-30.94-53-25-14.32-63.11-10.3-82.42,20.54h0c-16.76,29.31-52.78,39.18-82,22.47-20.61-11.78-25.95-32.77-29.34-51.51-2.66-14.71-7.11-39.34-30.94-53-24.88-14.22-62.64-10.35-82.06,20l-.08,0c-16.76,29.31-52.78,39.19-82,22.48-20.6-11.79-25.94-32.77-29.33-51.52-2.66-14.71-7.11-39.33-30.95-53-25.64-14.66-65-10.1-83.8,22.83l1.12.64C272.32,28.85,310.83,24.39,335.93,38.74Z"/><path class="cls-3" d="M319.26,67.89C342.58,81.23,347,105.48,349.58,120c3.44,19,8.87,40.34,30,52.4a60.69,60.69,0,0,0,82-20.08l.08,0c18.44-32.24,56.94-36.7,82.05-22.35,23.31,13.33,27.7,37.58,30.31,52.07,3.44,19,8.88,40.35,30,52.41,29.07,16.62,64.72,7.48,82.38-20.67h0c18.44-32.24,56.94-36.7,82-22.35,23.31,13.33,27.69,37.58,30.31,52.08,3.44,19,8.88,40.34,30,52.4a60.71,60.71,0,0,0,82-20.09l.07.05c18.44-32.24,57-36.71,82.05-22.35,23.31,13.33,27.7,37.58,30.32,52.07,3.44,19,8.87,40.34,30,52.4,29.85,17.07,66.65,7,83.77-22.95l-1.12-.64c-16.76,29.31-52.79,39.18-82,22.47-20.61-11.78-26-32.77-29.33-51.51-2.66-14.71-7.11-39.34-31-53-24.87-14.23-62.63-10.36-82.06,20l-.08-.05c-16.76,29.32-52.78,39.19-82,22.48C808.72,283,803.38,262,800,243.29c-2.66-14.72-7.11-39.34-30.94-53C744,176,705.94,180,686.63,210.87h0c-16.76,29.31-52.78,39.19-82,22.48-20.61-11.79-26-32.77-29.34-51.52-2.65-14.71-7.1-39.33-30.94-53-24.88-14.22-62.64-10.35-82.06,20l-.08,0c-16.76,29.32-52.79,39.19-82,22.48-20.6-11.78-25.95-32.76-29.33-51.51-2.66-14.71-7.11-39.34-31-53-25.64-14.66-65-10.1-83.81,22.84l1.12.64C255.65,58,294.16,53.54,319.26,67.89Z"/><path class="cls-3" d="M302.59,97.05c23.32,13.33,27.7,37.58,30.32,52.07,3.44,19,8.87,40.35,30,52.41a60.7,60.7,0,0,0,82-20.09l.08.05c18.44-32.25,56.94-36.71,82-22.36,23.31,13.33,27.69,37.59,30.31,52.08,3.44,19,8.88,40.34,30,52.4C616.37,280.24,652,271.1,669.68,243h0c18.43-32.24,56.94-36.71,82-22.35,23.31,13.33,27.69,37.58,30.31,52.07,3.44,19,8.88,40.35,30,52.4A60.69,60.69,0,0,0,894,305l.07,0c18.44-32.24,56.95-36.7,82-22.35,23.32,13.33,27.7,37.58,30.32,52.08,3.43,19,8.87,40.34,30,52.4,29.85,17.07,66.65,7,83.77-23l-1.12-.64c-16.77,29.32-52.79,39.19-82,22.48-20.61-11.78-25.95-32.77-29.33-51.51-2.66-14.72-7.11-39.34-31-53-24.87-14.22-62.63-10.35-82.06,20l-.08,0c-16.76,29.31-52.78,39.18-82,22.47-20.6-11.78-25.94-32.76-29.33-51.51-2.66-14.71-7.11-39.33-30.94-53-25-14.32-63.11-10.3-82.42,20.54h0c-16.76,29.32-52.78,39.19-82,22.48-20.61-11.78-26-32.77-29.34-51.51-2.66-14.71-7.11-39.34-30.94-53-24.88-14.22-62.64-10.35-82.07,20l-.07,0c-16.76,29.31-52.79,39.19-82,22.48-20.61-11.79-25.95-32.77-29.33-51.52-2.66-14.71-7.11-39.33-30.95-53-25.64-14.66-65-10.1-83.81,22.83l1.12.64C239,87.16,277.49,82.7,302.59,97.05Z"/><path class="cls-3" d="M285.92,126.21c23.32,13.33,27.7,37.58,30.32,52.07,3.44,19,8.87,40.34,30,52.4a60.69,60.69,0,0,0,82-20.08l.08,0c18.44-32.24,56.94-36.7,82.05-22.35,23.31,13.33,27.69,37.58,30.31,52.07,3.44,19,8.87,40.35,30,52.41,29.08,16.62,64.73,7.48,82.39-20.67h0c18.43-32.24,56.94-36.7,82.05-22.35,23.31,13.33,27.69,37.58,30.31,52.08,3.44,19,8.87,40.34,30,52.4a60.71,60.71,0,0,0,82-20.08l.07,0c18.44-32.24,56.95-36.71,82-22.35,23.31,13.33,27.7,37.58,30.32,52.07,3.43,19,8.87,40.35,30,52.4,29.85,17.07,66.64,7,83.77-22.95l-1.12-.64c-16.77,29.31-52.79,39.18-82,22.47-20.61-11.78-25.95-32.77-29.34-51.51-2.65-14.71-7.1-39.34-30.94-53-24.88-14.23-62.63-10.36-82.06,20l-.08-.05c-16.76,29.32-52.78,39.19-82,22.48-20.6-11.78-25.94-32.77-29.33-51.51-2.66-14.72-7.11-39.34-30.94-53-25-14.31-63.11-10.29-82.42,20.55h0c-16.76,29.31-52.78,39.19-82,22.48-20.61-11.79-25.95-32.77-29.34-51.52-2.66-14.71-7.1-39.33-30.94-53-24.88-14.22-62.64-10.35-82.07,20l-.07,0c-16.76,29.31-52.79,39.18-82,22.47-20.61-11.78-25.95-32.77-29.33-51.51-2.66-14.71-7.11-39.33-30.95-53-25.64-14.67-65-10.11-83.81,22.83l1.12.64C222.31,116.31,260.82,111.85,285.92,126.21Z"/><path class="cls-3" d="M269.25,155.36c23.31,13.33,27.7,37.58,30.32,52.07,3.43,19,8.87,40.35,30,52.41a60.7,60.7,0,0,0,82-20.09l.08.05c18.44-32.25,56.94-36.71,82.05-22.35C517,230.78,521.37,255,524,269.52c3.44,19,8.88,40.34,30,52.4,29.08,16.63,64.73,7.49,82.39-20.67h0c18.43-32.24,56.94-36.71,82-22.35,23.32,13.33,27.7,37.58,30.32,52.07,3.44,19,8.87,40.35,30,52.4a60.69,60.69,0,0,0,82-20.08l.08,0c18.44-32.24,57-36.7,82.05-22.35,23.31,13.33,27.7,37.58,30.31,52.08,3.44,19,8.88,40.34,30,52.4,29.85,17.07,66.64,7,83.76-23l-1.12-.64c-16.76,29.32-52.78,39.19-82,22.48-20.61-11.79-26-32.77-29.34-51.51-2.65-14.72-7.1-39.34-30.94-53-24.88-14.22-62.64-10.35-82.06,20l-.08,0c-16.76,29.31-52.78,39.18-82,22.47-20.6-11.78-25.94-32.76-29.33-51.51-2.66-14.71-7.11-39.33-31-53-25-14.32-63.1-10.3-82.42,20.54h0c-16.76,29.31-52.78,39.18-82,22.47C534,309,528.65,288,525.26,269.29c-2.66-14.71-7.11-39.33-30.94-53-24.88-14.23-62.64-10.36-82.07,19.95l-.07,0c-16.77,29.31-52.79,39.19-82,22.48-20.61-11.79-25.95-32.77-29.33-51.52-2.66-14.71-7.11-39.33-30.95-53-25.64-14.66-65-10.1-83.81,22.83l1.12.64C205.64,145.47,244.15,141,269.25,155.36Z"/><path class="cls-3" d="M252.58,184.52c23.31,13.33,27.7,37.58,30.31,52.07,3.44,19,8.88,40.34,30,52.4a60.69,60.69,0,0,0,82-20.08l.08,0c18.43-32.24,56.94-36.71,82.05-22.35,23.31,13.33,27.69,37.58,30.31,52.07,3.44,19,8.87,40.35,30,52.41,29.08,16.62,64.73,7.48,82.39-20.67h0c18.43-32.24,56.94-36.7,82-22.35,23.32,13.33,27.7,37.58,30.32,52.08,3.44,19,8.87,40.34,30,52.4a60.7,60.7,0,0,0,82-20.08l.08,0c18.44-32.24,56.94-36.71,82-22.35,23.31,13.33,27.7,37.58,30.31,52.07,3.44,19,8.88,40.35,30,52.4,29.85,17.07,66.64,7,83.76-22.95l-1.12-.64c-16.76,29.31-52.78,39.18-82,22.47-20.61-11.78-26-32.76-29.34-51.51-2.65-14.71-7.1-39.33-30.94-53-24.88-14.23-62.64-10.36-82.06,20l-.08-.05c-16.76,29.32-52.78,39.19-82,22.48-20.61-11.79-25.95-32.77-29.33-51.51-2.66-14.72-7.11-39.34-30.95-53-25-14.31-63.1-10.29-82.42,20.55h0c-16.76,29.31-52.78,39.19-82,22.48-20.6-11.79-25.94-32.77-29.33-51.52-2.66-14.71-7.11-39.33-30.94-53-24.88-14.23-62.64-10.35-82.07,20l-.07,0c-16.77,29.31-52.79,39.18-82,22.47-20.61-11.78-25.95-32.77-29.34-51.51-2.65-14.71-7.1-39.33-30.94-53-25.64-14.67-65-10.11-83.81,22.83l1.12.64C189,174.62,227.48,170.16,252.58,184.52Z"/><path class="cls-3" d="M235.91,213.67c23.31,13.33,27.7,37.58,30.31,52.07,3.44,19,8.88,40.35,30,52.41a60.7,60.7,0,0,0,82-20.09l.08.05c18.43-32.25,56.94-36.71,82-22.35,23.32,13.33,27.7,37.58,30.32,52.07,3.44,19,8.87,40.34,30,52.4,29.08,16.63,64.73,7.49,82.39-20.67h0c18.43-32.24,56.94-36.71,82-22.35,23.32,13.33,27.7,37.58,30.32,52.07,3.44,19,8.87,40.35,30,52.4a60.69,60.69,0,0,0,82-20.08l.08,0c18.44-32.24,56.94-36.7,82.05-22.35,23.31,13.33,27.69,37.58,30.31,52.08,3.44,19,8.88,40.34,30,52.4,29.85,17.07,66.64,7,83.76-23l-1.12-.64c-16.76,29.31-52.78,39.19-82,22.48-20.61-11.79-25.95-32.77-29.34-51.52-2.66-14.71-7.11-39.33-30.94-53-24.88-14.22-62.64-10.35-82.07,20l-.07,0c-16.76,29.31-52.79,39.18-82,22.47-20.6-11.78-26-32.76-29.33-51.51-2.66-14.71-7.11-39.33-30.95-53-25-14.32-63.1-10.3-82.42,20.54h0c-16.76,29.31-52.78,39.18-82,22.47-20.6-11.78-25.94-32.77-29.33-51.51-2.66-14.71-7.11-39.33-30.94-53-24.88-14.22-62.64-10.35-82.07,20l-.08,0c-16.76,29.31-52.78,39.19-82,22.48-20.61-11.79-25.95-32.77-29.34-51.52-2.65-14.71-7.11-39.33-30.94-53-25.64-14.66-65-10.1-83.81,22.83l1.12.64C172.3,203.78,210.81,199.31,235.91,213.67Z"/><path class="cls-3" d="M219.24,242.83c23.31,13.33,27.7,37.58,30.31,52.07,3.44,19,8.88,40.34,30,52.4a60.69,60.69,0,0,0,82-20.08l.08,0c18.43-32.24,56.94-36.71,82-22.35C467,318.24,471.36,342.49,474,357c3.44,19,8.87,40.35,30,52.41,29.08,16.62,64.73,7.48,82.39-20.67h0c18.44-32.24,56.95-36.7,82-22.35,23.31,13.33,27.7,37.58,30.32,52.07,3.44,19,8.87,40.35,30,52.41a60.7,60.7,0,0,0,82-20.09l.08.05c18.44-32.24,56.94-36.71,82-22.35,23.31,13.33,27.69,37.58,30.31,52.07,3.44,19,8.88,40.35,30,52.4,29.86,17.07,66.65,7,83.77-22.95l-1.12-.64c-16.76,29.31-52.78,39.18-82,22.47-20.61-11.78-26-32.76-29.34-51.51-2.66-14.71-7.1-39.33-30.94-53-24.88-14.23-62.64-10.36-82.07,20l-.07-.05c-16.76,29.32-52.79,39.19-82,22.48C708.69,458,703.35,437,700,418.21c-2.66-14.71-7.11-39.33-31-53-25-14.31-63.1-10.29-82.42,20.55h0c-16.76,29.31-52.78,39.19-82,22.48-20.61-11.79-25.94-32.77-29.33-51.52-2.66-14.71-7.11-39.33-30.95-53-24.87-14.23-62.63-10.36-82.06,20l-.08,0c-16.76,29.31-52.78,39.18-82,22.47-20.61-11.78-26-32.77-29.34-51.51-2.65-14.71-7.1-39.34-30.94-53-25.64-14.67-65-10.11-83.81,22.83l1.12.64C155.63,232.93,194.13,228.47,219.24,242.83Z"/><path class="cls-3" d="M345,356.42c18.43-32.25,56.94-36.71,82-22.36,23.32,13.34,27.7,37.59,30.32,52.08,3.44,19,8.87,40.34,30,52.4,29.08,16.63,64.73,7.48,82.38-20.67h0c18.44-32.24,57-36.71,82.05-22.35C675,408.86,679.41,433.11,682,447.6c3.43,19,8.87,40.34,30,52.4a60.69,60.69,0,0,0,82-20.08l.08,0c18.44-32.24,56.94-36.7,82-22.35,23.31,13.33,27.69,37.58,30.31,52.07,3.44,19,8.87,40.35,30,52.41,29.86,17.07,66.65,7,83.77-23l-1.12-.64c-16.76,29.32-52.78,39.19-82,22.48-20.6-11.78-25.94-32.77-29.33-51.52-2.66-14.71-7.11-39.33-30.94-53-24.88-14.22-62.64-10.35-82.07,20l-.07,0c-16.76,29.31-52.79,39.18-82,22.47-20.61-11.78-26-32.76-29.33-51.51-2.66-14.71-7.11-39.33-30.95-53-25-14.32-63.1-10.3-82.42,20.54h0c-16.76,29.32-52.78,39.19-82,22.48-20.61-11.78-26-32.77-29.33-51.51-2.66-14.71-7.11-39.33-30.95-53-24.87-14.22-62.63-10.35-82.06,20l-.08,0c-16.76,29.31-52.78,39.19-82,22.48-20.61-11.79-26-32.77-29.34-51.52-2.66-14.71-7.1-39.33-30.94-53-25.64-14.66-65-10.1-83.81,22.83l1.12.64c18.44-32.24,56.94-36.7,82.05-22.35,23.31,13.33,27.69,37.58,30.31,52.07,3.44,19,8.88,40.35,30,52.41a60.7,60.7,0,0,0,82-20.09Z"/><path class="cls-3" d="M777.42,509.12c18.43-32.24,56.94-36.71,82.05-22.35,23.31,13.33,27.69,37.58,30.31,52.07,3.44,19,8.87,40.34,30,52.4,29.86,17.07,66.65,7,83.77-23l-1.12-.64c-16.76,29.31-52.78,39.18-82,22.47-20.6-11.78-25.94-32.77-29.33-51.51-2.66-14.71-7.11-39.33-30.94-53-24.88-14.23-62.64-10.36-82.07,20l-.07-.05c-16.77,29.32-52.79,39.19-82,22.48-20.61-11.78-26-32.77-29.34-51.51-2.65-14.72-7.1-39.34-30.94-53-25-14.31-63.1-10.29-82.42,20.55h0c-16.76,29.31-52.79,39.19-82,22.48-20.61-11.79-25.95-32.77-29.33-51.52-2.66-14.71-7.11-39.33-31-53-25.64-14.66-65-10.1-83.81,22.83l1.12.64c18.44-32.24,57-36.7,82.05-22.35,23.32,13.33,27.7,37.58,30.32,52.07,3.44,19,8.87,40.35,30,52.41,29.08,16.62,64.73,7.48,82.38-20.67h0c18.44-32.24,57-36.7,82-22.35,23.32,13.33,27.7,37.58,30.31,52.08,3.44,19,8.88,40.34,30,52.4a60.7,60.7,0,0,0,82-20.09Z"/></g></svg>