<svg id="圖層_1" data-name="圖層 1" xmlns="http://www.w3.org/2000/svg" viewBox="0 0 50 68.74"><defs><style>.cls-1{fill:#595757;}</style></defs><title>工作區域 15</title><path class="cls-1" d="M48.76,28.29V27.1H15.35a1.06,1.06,0,0,0-1.07,1.06v1.19H47.7A1.05,1.05,0,0,0,48.76,28.29Z"/><polygon class="cls-1" points="18.57 37.21 18.57 34.96 14.34 34.96 14.34 37.21 15.27 37.21 15.27 55.26 14.28 55.26 14.28 57.51 18.51 57.51 18.51 55.26 17.52 55.26 17.52 37.21 18.57 37.21"/><path class="cls-1" d="M47.62,57.5h1.19V36.14a1.16,1.16,0,0,0-.63-1.06,1.12,1.12,0,0,0-1.55.6L40.9,50.38V36A1.06,1.06,0,0,0,39.84,35H38.65V56.39a1.11,1.11,0,0,0,.92,1.1.75.75,0,0,0,.21,0,1.13,1.13,0,0,0,1-.72L46.55,42.1V56.44A1.06,1.06,0,0,0,47.62,57.5Z"/><path class="cls-1" d="M35.91,1.63,36.65,0H26.8a1.07,1.07,0,0,0-1,.63L25.1,2.26h9.84A1.07,1.07,0,0,0,35.91,1.63Z"/><path class="cls-1" d="M24.37,35H23.18V53.34a4.18,4.18,0,0,0,4.18,4.17h3.56a4.18,4.18,0,0,0,4.18-4.17V35H33.9A1.07,1.07,0,0,0,32.84,36V44.4h-7.4V36A1.07,1.07,0,0,0,24.37,35Zm8.47,11.71v6.68a1.92,1.92,0,0,1-1.92,1.92H27.36a1.92,1.92,0,0,1-1.92-1.92V46.66Z"/><path class="cls-1" d="M41.13,10.11h-1.2v2.13H17.42a2.93,2.93,0,0,0-3.16,3.22v3.9a2.93,2.93,0,0,0,3.16,3.22H48.49V21.39a1.06,1.06,0,0,0-1.06-1.07H42.19V14.49h5.24a1.05,1.05,0,0,0,1.06-1.06V12.24h-6.3V11.17A1.07,1.07,0,0,0,41.13,10.11Zm-1.2,10.21H17.42c-.66,0-.9-.14-.9-1v-3.9c0-.82.24-1,.9-1H39.93Z"/><path class="cls-1" d="M29.47,64.26a33.58,33.58,0,0,0-11.18-2.34,15.22,15.22,0,0,0-7.74,2h0A3.94,3.94,0,0,0,8.6,67.35v.91h0a13.24,13.24,0,0,1,9.69-4.1,31.41,31.41,0,0,1,10.4,2.21,31.54,31.54,0,0,0,11.18,2.36,15.34,15.34,0,0,0,7.84-2.07,4,4,0,0,0,2-3.45v-1a13.25,13.25,0,0,1-9.81,4.22A29.56,29.56,0,0,1,29.47,64.26Z"/><path class="cls-1" d="M9.72,14.18a6.49,6.49,0,0,1,6.49-6.49H47.72c1.51,0,1.65-.88,2.28-2.26H16.21a8.74,8.74,0,0,0-8.74,8.75V40.31C7.47,54.92,5.6,56.38,1,56.38H0a3.47,3.47,0,0,0,4.6,1.7c4.26-1.59,5.12-6.81,5.12-17.77Z"/></svg>