<svg id="圖層_1" data-name="圖層 1" xmlns="http://www.w3.org/2000/svg" viewBox="0 0 236.81 137.47"><defs><style>.cls-1{fill:#dcdcdc;}.cls-2{fill:#16e9d8;}</style></defs><title>工作區域 6</title><path class="cls-1" d="M95.4,58.71H28.56V56.33a2.14,2.14,0,0,1,2.13-2.14H97.53v2.38A2.14,2.14,0,0,1,95.4,58.71ZM95.23,115h2.39V72.27a2.35,2.35,0,0,0-1.26-2.11,2.25,2.25,0,0,0-3.1,1.21L81.81,100.76V72a2.13,2.13,0,0,0-2.14-2.13H77.29v42.87A2.26,2.26,0,0,0,79.13,115a3,3,0,0,0,.42,0,2.25,2.25,0,0,0,2.1-1.44L93.1,84.2v28.68A2.14,2.14,0,0,0,95.23,115ZM71.82,3.26,73.29,0H53.6a2.12,2.12,0,0,0-1.94,1.26L50.19,4.51H69.88A2.12,2.12,0,0,0,71.82,3.26ZM50.88,72V88.8h14.8V72a2.13,2.13,0,0,1,2.13-2.13h2.38v36.77A8.35,8.35,0,0,1,61.84,115H54.72a8.35,8.35,0,0,1-8.35-8.36V69.9h2.38A2.13,2.13,0,0,1,50.88,72Zm0,21.29v13.35a3.84,3.84,0,0,0,3.84,3.84h7.12a3.84,3.84,0,0,0,3.84-3.84V93.32Zm33.5-71v2.12H97v2.39A2.14,2.14,0,0,1,94.86,29H84.38V40.65H94.86A2.13,2.13,0,0,1,97,42.78v2.38H34.84c-4,0-6.31-2.4-6.31-6.44v-7.8c0-4,2.36-6.45,6.31-6.45h45V20.22h2.38A2.13,2.13,0,0,1,84.38,22.35ZM79.87,29H35.38c-1.33,0-2.34.29-2.34,1.93v7.8c0,1.64,1,1.93,2.34,1.93H79.87ZM58.93,128.52c-5.51-2-13.83-4.69-22.35-4.69a30.67,30.67,0,0,0-15.49,4l0,0a7.85,7.85,0,0,0-3.86,6.82v1.81h0a26.5,26.5,0,0,1,19.38-8.18c7.8,0,15.61,2.51,20.81,4.41,6.54,2.38,13.65,4.71,22.36,4.71a30.5,30.5,0,0,0,15.66-4.14,8,8,0,0,0,4-6.88v-1.93A26.54,26.54,0,0,1,79.75,133C71.78,133,65.1,130.76,58.93,128.52ZM19.45,28.35a13,13,0,0,1,13-13h63c3,0,3.3-1.76,4.57-4.52H32.42A17.49,17.49,0,0,0,14.93,28.35V80.62c0,29.22-3.73,32.13-12.9,32.13H0s2.56,5.87,9.2,3.42c8.52-3.18,10.25-13.64,10.25-35.55ZM35.54,74.43a2.13,2.13,0,0,0,2.13-2.13V69.91h-7.5A2.13,2.13,0,0,0,28,72.05v2.38H30.6v36.08h-.43A2.13,2.13,0,0,0,28,112.65V115h7.5a2.13,2.13,0,0,0,2.13-2.14v-2.38H35.11V74.43Z"/><path class="cls-2" d="M234.34,80.9v2.38H167.51a2.13,2.13,0,0,1-2.13-2.13V78.77h66.83A2.13,2.13,0,0,1,234.34,80.9Zm-4.42-56.3V53.27L218.47,23.88a2.27,2.27,0,0,0-2.1-1.44,3,3,0,0,0-.42,0,2.26,2.26,0,0,0-1.84,2.22V67.57h2.38a2.13,2.13,0,0,0,2.13-2.13V36.72l11.45,29.39a2.26,2.26,0,0,0,3.11,1.2,2.33,2.33,0,0,0,1.25-2.11V22.46h-2.38A2.13,2.13,0,0,0,229.92,24.6ZM206.69,133H187l1.46,3.26a2.15,2.15,0,0,0,1.95,1.25H210.1l-1.46-3.25A2.14,2.14,0,0,0,206.69,133ZM185.56,67.57h-2.38V30.8a8.35,8.35,0,0,1,8.36-8.35h7.11A8.36,8.36,0,0,1,207,30.8V67.57h-2.39a2.13,2.13,0,0,1-2.13-2.13V48.67H187.7V65.44A2.13,2.13,0,0,1,185.56,67.57Zm16.93-23.41V30.8A3.84,3.84,0,0,0,198.65,27h-7.11a3.84,3.84,0,0,0-3.84,3.84V44.16Zm16.57,73.1h-2.38V113h-45c-4,0-6.32-2.41-6.32-6.44V98.75c0-4,2.36-6.44,6.32-6.44H233.8v2.38a2.13,2.13,0,0,1-2.13,2.13H221.2v11.66h10.47a2.13,2.13,0,0,1,2.13,2.14V113H221.2v2.12A2.14,2.14,0,0,1,219.06,117.26Zm-2.38-20.44H172.19c-1.33,0-2.34.29-2.34,1.93v7.81c0,1.63,1,1.92,2.34,1.92h44.49Zm-.12-92.31A26.54,26.54,0,0,1,236.18,13V11a8,8,0,0,0-4-6.89A30.56,30.56,0,0,0,216.56,0c-8.7,0-15.82,2.33-22.36,4.71-5.19,1.9-13,4.42-20.81,4.42A26.47,26.47,0,0,1,154,.94h0V2.76a7.86,7.86,0,0,0,3.86,6.83l0,0a30.6,30.6,0,0,0,15.48,4c8.52,0,16.84-2.67,22.36-4.68C201.91,6.71,208.59,4.51,216.56,4.51Zm-60.3,52.34c0-21.91-1.73-32.37-10.25-35.55a7,7,0,0,0-9.2,3.42h2c9.17,0,12.91,2.91,12.91,32.13v52.27a17.49,17.49,0,0,0,17.49,17.49h67.57c-1.26-2.75-1.53-4.52-4.56-4.52h-63a13,13,0,0,1-13-13ZM171.93,63V27h2.56V24.58a2.13,2.13,0,0,0-2.13-2.13h-7.51v2.38A2.14,2.14,0,0,0,167,27h.43V63h-2.56v2.39A2.14,2.14,0,0,0,167,67.56h7.51V65.18A2.14,2.14,0,0,0,172.36,63Z"/></svg>