<svg id="圖層_1" data-name="圖層 1" xmlns="http://www.w3.org/2000/svg" viewBox="0 0 100 85.28"><defs><style>.cls-1{fill:#16e9d8;}.cls-2{fill:#dbdcdc;}</style></defs><title>Intro-image</title><path class="cls-1" d="M100,34.39H6.38A6.38,6.38,0,0,0,0,40.77H93.62A6.38,6.38,0,0,0,100,34.39Z"/><rect class="cls-2" width="100" height="6.38"/><path class="cls-2" d="M51.09,74.45c-6.67-2.43-16.73-5.66-27-5.66A37.05,37.05,0,0,0,5.32,73.66l-.05,0A9.49,9.49,0,0,0,.6,81.94v2.2h0a32,32,0,0,1,23.43-9.9c9.44,0,18.89,3,25.17,5.33,7.92,2.89,16.52,5.7,27.05,5.7a37,37,0,0,0,19-5A9.65,9.65,0,0,0,100,72V69.61A32.08,32.08,0,0,1,76.27,79.82C66.63,79.82,58.55,77.17,51.09,74.45Z"/></svg>