<svg id="圖層_1" data-name="圖層 1" xmlns="http://www.w3.org/2000/svg" viewBox="0 0 77.24 12.82"><defs><style>.cls-1{fill:#dbdcdc;}</style></defs><title>Intro-image</title><path class="cls-1" d="M39.24,4.4c-5.19-1.89-13-4.4-21-4.4A28.76,28.76,0,0,0,3.67,3.79l0,0A7.37,7.37,0,0,0,0,10.22v1.71H0a24.88,24.88,0,0,1,18.21-7.7c7.34,0,14.68,2.37,19.56,4.15,6.15,2.24,12.84,4.43,21,4.43A28.75,28.75,0,0,0,73.53,8.93a7.49,7.49,0,0,0,3.71-6.47V.64A24.91,24.91,0,0,1,58.8,8.58C51.31,8.58,45,6.52,39.24,4.4Z"/></svg>