<svg id="圖層_1" data-name="圖層 1" xmlns="http://www.w3.org/2000/svg" viewBox="0 0 400 528.07"><defs><style>.cls-1{fill:#dbdcdc;}</style></defs><title>Intro-image</title><path class="cls-1" d="M315.46,172.06H119.58v-7a6.25,6.25,0,0,1,6.25-6.25H321.71v7A6.25,6.25,0,0,1,315.46,172.06Zm-.47,165h7V211.82a6.82,6.82,0,0,0-3.67-6.18,6.61,6.61,0,0,0-9.11,3.53l-33.55,86.14v-84.2a6.25,6.25,0,0,0-6.25-6.25h-7V330.51A6.61,6.61,0,0,0,267.8,337a7.3,7.3,0,0,0,1.23.11,6.63,6.63,0,0,0,6.16-4.21l33.55-86.14v84A6.25,6.25,0,0,0,315,337.07ZM246.38,9.55,250.67,0H193a6.25,6.25,0,0,0-5.7,3.68L183,13.23h57.7A6.25,6.25,0,0,0,246.38,9.55ZM185,211.11v49.15h43.36V211.11a6.25,6.25,0,0,1,6.25-6.25h7V312.64a24.48,24.48,0,0,1-24.49,24.49H196.26a24.48,24.48,0,0,1-24.49-24.49V204.86h7A6.25,6.25,0,0,1,185,211.11Zm0,62.38v39.15a11.26,11.26,0,0,0,11.26,11.26H217.1a11.26,11.26,0,0,0,11.26-11.26V273.49Zm98.19-208v6.23h36.94v7A6.25,6.25,0,0,1,313.88,85H283.19v34.18h30.69a6.25,6.25,0,0,1,6.25,6.25v7H138c-11.59,0-18.52-7.06-18.52-18.88V90.61c0-11.82,6.93-18.88,18.52-18.88H270V59.25h7A6.25,6.25,0,0,1,283.19,65.5ZM270,85H139.57c-3.9,0-6.86.85-6.86,5.65v22.88c0,4.8,3,5.65,6.86,5.65H270ZM208.6,376.67c-16.17-5.9-40.55-13.74-65.53-13.74a89.64,89.64,0,0,0-45.38,11.82l-.12.07a23,23,0,0,0-11.31,20v5.32l0,0c15.82-15.92,34.92-24,56.78-24,22.89,0,45.77,7.37,61,12.93,19.17,7,40,13.81,65.53,13.81a89.59,89.59,0,0,0,45.92-12.13A23.37,23.37,0,0,0,327.1,370.6v-5.66c-16,16.42-35.32,24.74-57.5,24.74C246.25,389.68,226.66,383.25,208.6,376.67ZM92.87,83.1a38,38,0,0,1,38-38H315.58c8.87,0,9.67-5.16,13.38-13.23H130.9A51.26,51.26,0,0,0,79.64,83.1V236.28c0,85.66-11,94.18-37.83,94.18H35.87s7.51,17.18,27,10c25-9.33,30.05-40,30.05-104.2Zm47.17,135a6.25,6.25,0,0,0,6.25-6.25v-7h-22a6.25,6.25,0,0,0-6.25,6.25v7h7.5V323.9H124.3a6.25,6.25,0,0,0-6.25,6.25v7h22a6.25,6.25,0,0,0,6.25-6.25v-7h-7.51V218.14Z"/><path class="cls-1" d="M0,525.63H9.66V466.14H0v-1.22H28v1.22H18.35v59.49H28v1.22H0Z"/><path class="cls-1" d="M48.18,525.63h7.66l23.48-62.27h2.09l23.66,62.27h7.74v1.22H86v-1.22h9.65l-9.13-24.18H66.36l-9.13,24.18h9.65v1.22H48.18Zm28.27-50.71-9.57,25.32H86Z"/><path class="cls-1" d="M131.94,525.63h9.66V466.14h-9.66v-1.22h18.62L180,512.32h.18V466.14h-9.66v-1.22h20.62v1.22h-9.66v61.93h-1.74l-36.61-58.36h-.18v55.92h9.65v1.22H131.94Z"/><path class="cls-1" d="M212.92,525.63h9.65V466.14h-9.65v-1.22h28v1.22h-9.65v59.49h15.48q7.65,0,12-4.78t6.35-13.05h1v19.05H212.92Z"/><path class="cls-1" d="M287.19,525.63h7.66l23.48-62.27h2.09l23.66,62.27h7.74v1.22H325v-1.22h9.65l-9.13-24.18H305.37l-9.13,24.18h9.65v1.22h-18.7Zm28.27-50.71-9.57,25.32H325Z"/><path class="cls-1" d="M372,525.63h9.66V466.14H372v-1.22h28v1.22h-9.65v59.49H400v1.22H372Z"/></svg>