<svg id="圖層_1" data-name="圖層 1" xmlns="http://www.w3.org/2000/svg" viewBox="0 0 561.26 315.12"><defs><style>.cls-1{fill:#35e636;}.cls-2{fill:#f2f2f2;}</style></defs><title>工作區域 13</title><rect class="cls-1" width="561.26" height="315.12" rx="16.9" ry="16.9"/><path class="cls-2" d="M143.13,105.56h-13.7l-5.5,27.6h-13.2L125,62h25.3c12.1,0,19.1,7.7,19.1,18.8C169.43,93.46,160.23,105.56,143.13,105.56Zm5-31.9h-12.2l-4.1,20.2h11.8c8.6,0,12.5-6.6,12.5-12C156.13,77.36,154,73.66,148.13,73.66Z"/><path class="cls-2" d="M225.13,97.56c-2.7,13.7-4.6,21.8-10.9,28.1a28.94,28.94,0,0,1-19.9,8.1c-13.5,0-21.4-9.2-21.4-20.2,0-3.2.7-8,2.2-16,2.7-13.7,4.6-21.8,10.9-28.1a28.7,28.7,0,0,1,19.8-8.1c13.5,0,21.5,9.2,21.5,20.2C227.33,84.76,226.63,89.56,225.13,97.56ZM204.93,73a13.09,13.09,0,0,0-9.7,4.3c-2.7,2.9-4.3,7.1-6.9,20.3-1.2,6.1-2.1,11.5-2.1,15,0,6.3,4.3,9.6,9.1,9.6a13.09,13.09,0,0,0,9.7-4.3c2.7-2.9,4.3-7.1,6.9-20.3a88.75,88.75,0,0,0,2-15C213.93,76.26,209.73,73,204.93,73Z"/><path class="cls-2" d="M277.13,78.06c-3.1-3.7-7-5.2-12.6-5.2-8.3,0-13.2,5.6-13.2,10.8,0,4.5,3.6,6,7.6,7l5.9,1.4c11.8,2.9,16.1,8.4,16.1,18.5,0,16-13.5,23.2-28.5,23.2-11.2,0-18-2.7-24-9.8l9.6-8.4c3.8,4.5,8.8,6.5,15.6,6.5,7.9,0,14.1-4.5,14.1-10.3,0-5.1-3-6.8-7.5-7.9l-5.9-1.5c-11.7-2.9-16.2-9.6-16.2-16.9,0-13.6,10.5-24.1,27.9-24.1,8.3,0,15.7,2.8,20.4,8.6Z"/><path class="cls-2" d="M343,73.66h-17.5l-11.9,59.5h-13.2l11.9-59.5h-17.9l2.3-11.7h48.6Z"/><path class="cls-2" d="M398.43,73.56h-31.2l-3.6,17.9h26.9l-2.3,11.6h-26.9l-3.7,18.5h31.8l-2.3,11.6H342L356.33,62h44.4Z"/><path class="cls-2" d="M441.93,102.86l9.8,30.3h-14.5l-8.3-28.8h-10l-5.9,28.8h-13.2L414.13,62h25c14.4,0,19.4,9.1,19.4,19.1C458.53,89.86,453,99.16,441.93,102.86ZM437,73.66H425l-4,19.7h12c9,0,12.3-6.9,12.3-11.6C445.33,76.66,442.43,73.66,437,73.66Z"/><path class="cls-2" d="M167,217.26c-3.4,17.4-5.3,23-11.4,28.9-4.8,4.6-11.5,7-19.6,7h-25.3L125,182h23.3c11.8,0,21,6.1,21,19.9C169.33,205,168.83,208.16,167,217.26Zm-21-23.7h-10.1l-9.6,48h10a14.18,14.18,0,0,0,10.4-3.9c2.9-2.8,4.5-6.9,7.1-20.4,1.6-8.2,2.2-12,2.2-14.3C156,196.56,152.13,193.56,146,193.56Z"/><path class="cls-2" d="M229.73,193.56h-31.2l-3.6,17.9h26.9l-2.3,11.6h-26.9l-3.7,18.5h31.8l-2.3,11.6h-45.1l14.3-71.2H232Z"/><path class="cls-2" d="M276.73,198.06c-3.1-3.7-7-5.2-12.6-5.2-8.3,0-13.2,5.6-13.2,10.8,0,4.5,3.6,6,7.6,7l5.9,1.4c11.8,2.9,16.1,8.4,16.1,18.5,0,16-13.5,23.2-28.5,23.2-11.2,0-18-2.7-24-9.8l9.6-8.4c3.8,4.5,8.8,6.5,15.6,6.5,7.9,0,14.1-4.5,14.1-10.3,0-5.1-3-6.8-7.5-7.9l-5.9-1.5c-11.7-2.9-16.2-9.6-16.2-16.9,0-13.6,10.5-24.1,27.9-24.1,8.3,0,15.7,2.8,20.4,8.6Z"/><path class="cls-2" d="M300.63,253.16h-13.2l14.3-71.2h13.2Z"/><path class="cls-2" d="M360.73,203.66c-.1-6.5-3.5-10.7-9.4-10.7a13.92,13.92,0,0,0-9.8,4.2c-3.5,3.5-4.9,8.4-7.3,20.4a81.51,81.51,0,0,0-2,15c0,7.2,5,9.6,9.6,9.6,6.3,0,12.9-4.7,14.7-14.3l.6-3.1h-12.5l2.1-11h25.6l-1.9,10.2c-1.9,10.1-4.4,16.3-9.9,21.8a27.52,27.52,0,0,1-19.6,8c-14.4,0-22-9.6-22-20.2a87.82,87.82,0,0,1,2.1-16c3.3-17.1,5.1-22.3,10.8-28a28.11,28.11,0,0,1,20.1-8.2c15.3,0,22,10.7,22,22.3Z"/><path class="cls-2" d="M429.93,253.16h-11.2l-18.5-44.5-9,44.5H378l14.3-71.2h11.2l18.6,44.6L431,182h13.2Z"/></svg>