<?xml version="1.0" encoding="utf-8"?>
<!-- Generator: Adobe Illustrator 22.0.1, SVG Export Plug-In . SVG Version: 6.00 Build 0)  -->
<svg version="1.1" id="圖層_1" xmlns="http://www.w3.org/2000/svg" xmlns:xlink="http://www.w3.org/1999/xlink" x="0px" y="0px"
	 viewBox="0 0 561.3 315.1" style="enable-background:new 0 0 561.3 315.1;" xml:space="preserve">
<style type="text/css">
	.st0{fill:#ED7A0B;}
	.st1{fill:#F2F2F2;}
	.st2{font-family:'DIN-BoldItalic';}
	.st3{font-size:100px;}
	.st4{letter-spacing:-2;}
</style>
<title>工作區域 11</title>
<path class="st0" d="M16.9,0h527.5c9.3,0,16.9,7.6,16.9,16.9v281.3c0,9.3-7.6,16.9-16.9,16.9H16.9c-9.3,0-16.9-7.6-16.9-16.9V16.9
	C0,7.6,7.6,0,16.9,0z"/>
<text transform="matrix(1 0 0 1 136.53 130.21)" class="st1 st2 st3">OKni</text>
<text transform="matrix(1 0 0 1 341.83 130.21)" class="st1 st2 st3">f</text>
<text transform="matrix(1 0 0 1 374.13 130.21)" class="st1 st2 st3">e</text>
<text transform="matrix(1 0 0 1 117.28 250.21)" class="st1 st2 st3">&amp;Boa</text>
<text transform="matrix(1 0 0 1 351.1799 250.21)" class="st1 st2 st3 st4">r</text>
<text transform="matrix(1 0 0 1 392.48 250.21)" class="st1 st2 st3">d</text>
</svg>
