<svg id="圖層_1" data-name="圖層 1" xmlns="http://www.w3.org/2000/svg" viewBox="0 0 561.26 315.12"><defs><style>.cls-1{fill:#7d5d3d;}.cls-2{fill:#f2f2f2;}</style></defs><title>工作區域 15</title><rect class="cls-1" width="561.26" height="315.12" rx="16.9" ry="16.9"/><path class="cls-2" d="M204.18,97.06c4.1,2.6,6.8,5.9,6.8,12.5,0,14.3-10.4,23.6-24,23.6h-29.8L171.48,62h25.8c13.1,0,18.5,7.9,18.5,16.5C215.78,85,213.18,92.56,204.18,97.06Zm-14,5.8h-13.7l-3.7,18.6h13.8c6.9,0,11.1-4.9,11.1-11.3C197.68,106,195.28,102.86,190.18,102.86Zm4.8-29.2h-12.6l-3.6,17.5h12.7c7.8,0,10.9-5.9,10.9-10.5C202.38,77.36,201,73.66,195,73.66Z"/><path class="cls-2" d="M274.48,97.56c-2.7,13.7-4.6,21.8-10.9,28.1a28.94,28.94,0,0,1-19.9,8.1c-13.5,0-21.4-9.2-21.4-20.2,0-3.2.7-8,2.2-16,2.7-13.7,4.6-21.8,10.9-28.1a28.7,28.7,0,0,1,19.8-8.1c13.5,0,21.5,9.2,21.5,20.2C276.68,84.76,276,89.56,274.48,97.56ZM254.28,73a13.09,13.09,0,0,0-9.7,4.3c-2.7,2.9-4.3,7.1-6.9,20.3-1.2,6.1-2.1,11.5-2.1,15,0,6.3,4.3,9.6,9.1,9.6a13.09,13.09,0,0,0,9.7-4.3c2.7-2.9,4.3-7.1,6.9-20.3a88.75,88.75,0,0,0,2-15C263.28,76.26,259.08,73,254.28,73Z"/><path class="cls-2" d="M335.58,97.56c-2.7,13.7-4.6,21.8-10.9,28.1a28.94,28.94,0,0,1-19.9,8.1c-13.5,0-21.4-9.2-21.4-20.2,0-3.2.7-8,2.2-16,2.7-13.7,4.6-21.8,10.9-28.1a28.7,28.7,0,0,1,19.8-8.1c13.5,0,21.5,9.2,21.5,20.2C337.78,84.76,337.08,89.56,335.58,97.56ZM315.38,73a13.09,13.09,0,0,0-9.7,4.3c-2.7,2.9-4.3,7.1-6.9,20.3-1.2,6.1-2.1,11.5-2.1,15,0,6.3,4.3,9.6,9.1,9.6a13.09,13.09,0,0,0,9.7-4.3c2.7-2.9,4.3-7.1,6.9-20.3a88.75,88.75,0,0,0,2-15C324.38,76.26,320.18,73,315.38,73Z"/><path class="cls-2" d="M381.28,91.66l16.3,41.5h-14.4l-12.5-32.9-11.3,11-4.3,21.9H342L356.28,62h13.1l-6.3,31L393,62h16.4Z"/><path class="cls-2" d="M170.18,217.26c-3.4,17.4-5.3,23-11.4,28.9-4.8,4.6-11.5,7-19.6,7h-25.3l14.3-71.2h23.3c11.8,0,21,6.1,21,19.9C172.48,205,172,208.16,170.18,217.26Zm-21-23.7h-10.1l-9.6,48h10a14.18,14.18,0,0,0,10.4-3.9c2.9-2.8,4.5-6.9,7.1-20.4,1.6-8.2,2.2-12,2.2-14.3C159.18,196.56,155.28,193.56,149.18,193.56Z"/><path class="cls-2" d="M232.88,193.56h-31.2l-3.6,17.9H225l-2.3,11.6h-26.9l-3.7,18.5h31.8l-2.3,11.6h-45.1l14.3-71.2h44.4Z"/><path class="cls-2" d="M279.88,198.06c-3.1-3.7-7-5.2-12.6-5.2-8.3,0-13.2,5.6-13.2,10.8,0,4.5,3.6,6,7.6,7l5.9,1.4c11.8,2.9,16.1,8.4,16.1,18.5,0,16-13.5,23.2-28.5,23.2-11.2,0-18-2.7-24-9.8l9.6-8.4c3.8,4.5,8.8,6.5,15.6,6.5,7.9,0,14.1-4.5,14.1-10.3,0-5.1-3-6.8-7.5-7.9l-5.9-1.5c-11.7-2.9-16.2-9.6-16.2-16.9,0-13.6,10.5-24.1,27.9-24.1,8.3,0,15.7,2.8,20.4,8.6Z"/><path class="cls-2" d="M303.78,253.16h-13.2l14.3-71.2h13.2Z"/><path class="cls-2" d="M363.88,203.66c-.1-6.5-3.5-10.7-9.4-10.7a13.92,13.92,0,0,0-9.8,4.2c-3.5,3.5-4.9,8.4-7.3,20.4a81.51,81.51,0,0,0-2,15c0,7.2,5,9.6,9.6,9.6,6.3,0,12.9-4.7,14.7-14.3l.6-3.1h-12.5l2.1-11h25.6l-1.9,10.2c-1.9,10.1-4.4,16.3-9.9,21.8a27.52,27.52,0,0,1-19.6,8c-14.4,0-22-9.6-22-20.2a87.82,87.82,0,0,1,2.1-16c3.3-17.1,5.1-22.3,10.8-28a28.11,28.11,0,0,1,20.1-8.2c15.3,0,22,10.7,22,22.3Z"/><path class="cls-2" d="M433.08,253.16h-11.2l-18.5-44.5-9,44.5h-13.2l14.3-71.2h11.2l18.6,44.6,8.9-44.6h13.2Z"/></svg>