<svg id="圖層_1" data-name="圖層 1" xmlns="http://www.w3.org/2000/svg" viewBox="0 0 561.26 315.12"><defs><style>.cls-1{fill:#ff726a;}.cls-2{fill:#f2f2f2;}</style></defs><title>工作區域 3</title><rect class="cls-1" width="561.26" height="315.12" rx="16.9" ry="16.9"/><path class="cls-2" d="M154.24,127H134.33l-13.54,67.7h-15L119.31,127H99l2.61-13.31h55.29Z"/><path class="cls-2" d="M201,160.23l11.15,34.48H195.65l-9.44-32.77H174.83l-6.71,32.77h-15l16.27-81h28.44c16.38,0,22.07,10.35,22.07,21.73C219.88,145.44,213.62,156,201,160.23ZM195.42,127H181.77l-4.55,22.41h13.65c10.24,0,14-7.85,14-13.19C204.86,130.43,201.56,127,195.42,127Z"/><path class="cls-2" d="M288.37,126.9h-35.5l-4.09,20.36h30.6l-2.62,13.2h-30.6l-4.21,21h36.18l-2.62,13.2H224.2l16.27-81H291Z"/><path class="cls-2" d="M334.33,194.71l-1.71-14.79H305.2l-7.62,14.79h-16l44.14-81h11.95l11.94,81Zm-6.71-58.25-16.27,31.17h20.13Z"/><path class="cls-2" d="M414.76,127H394.85l-13.54,67.7h-15L379.83,127H359.47l2.62-13.31h55.29Z"/><path class="cls-2" d="M451.74,194.71,450,179.92H422.61L415,194.71H399l44.14-81h12l11.94,81ZM445,136.46l-16.27,31.17h20.14Z"/></svg>